<svg xmlns="http://www.w3.org/2000/svg" xmlns:xlink="http://www.w3.org/1999/xlink" width="1044.999" height="780.741" viewBox="0 0 1044.999 780.741"><defs><style>.a,.g{opacity:0.1;}.b,.c,.d,.e{fill:#fff;}.b{opacity:0.5;}.d{opacity:0.2;}.e{opacity:0.3;}.f{fill:#3f3d56;}.h{opacity:0.6;}.i{opacity:0.8;}.j{fill:url(#a);}.k{fill:#a0616a;}.l{fill:#8e5362;}.m{fill:#2f2e41;}.n{fill:#f86d70;}.o{fill:#ffc1c7;}</style><linearGradient id="a" x1="0.5" y1="1" x2="0.5" gradientUnits="objectBoundingBox"><stop offset="0" stop-color="gray" stop-opacity="0.251"/><stop offset="0.54" stop-color="gray" stop-opacity="0.122"/><stop offset="1" stop-color="gray" stop-opacity="0.102"/></linearGradient></defs><g class="a" transform="translate(0 0.004)"><path class="b" d="M279.464,71.091c-2.329-3.166-7.14.269-4.965,3.551.568.856,1.193,1.684,1.78,2.483,7.169,9.622,10.883,21.429,14.087,33.053.78,2.887,1.54,5.889.645,8.66a54.467,54.467,0,0,0-1.482-22.748c-1.934-7.409-4.946-14.443-8.054-21.439A19.5,19.5,0,0,0,279.464,71.091Z" transform="translate(-65.191 -45.283)"/><path class="c" d="M231.175,92.3c-4.811-.144-5.446,7.188-.635,7.573,1.261.106,2.54.135,3.753.164,14.809.4,28.819,5.773,42.281,11.547,3.3,1.414,6.736,3,8.66,6.033-6.072-7.034-14.058-12.182-22.555-15.973s-17.551-6.274-26.6-8.593A23.254,23.254,0,0,0,231.175,92.3Z" transform="translate(-63.427 -46.132)"/><path class="d" d="M232.643,111c-3.06.115-2.367,4.455.712,4.484.8,0,1.607,0,2.367-.067,9.343-.375,18.918,2.2,28.194,5.042,2.281.693,4.686,1.482,6.341,3.185a50.825,50.825,0,0,0-16.474-8.458,127.617,127.617,0,0,0-17.936-3.945A16.232,16.232,0,0,0,232.643,111Z" transform="translate(-63.557 -46.837)"/><path class="b" d="M297.63,193.357c.866,2.935,4.907,1.184,4.166-1.8-.192-.779-.433-1.549-.654-2.28-2.685-8.958-2.56-18.87-2.117-28.559.116-2.386.279-4.907,1.52-6.938a50.715,50.715,0,0,0-4.1,18.061,125.4,125.4,0,0,0,.625,18.35A16.179,16.179,0,0,0,297.63,193.357Z" transform="translate(-66.036 -48.453)"/><path class="d" d="M238.443,66.909c-1.838-.318-1.973,2.357-.144,2.771.481.106.962.183,1.424.26,5.629.962,11.018,3.714,16.2,6.591a8.757,8.757,0,0,1,3.378,2.714,31,31,0,0,0-8.766-7.15,75.882,75.882,0,0,0-10.209-4.628A9.679,9.679,0,0,0,238.443,66.909Z" transform="translate(-63.795 -45.172)"/><path class="c" d="M208.918,140.32c-4.667,2.406-.722,9,4.07,6.813,1.251-.577,2.473-1.222,3.647-1.828,14.251-7.39,30.792-10.113,47.15-12.211,3.993-.51,8.256-.962,11.951.616-10.075-2.839-20.813-3.079-31.186-1.867s-20.467,3.8-30.455,6.543a27.611,27.611,0,0,0-5.177,1.934Z" transform="translate(-62.657 -47.598)"/><path class="b" d="M222.808,166.4c-3.349,3.127,1.924,6.822,5.4,3.849.962-.779,1.8-1.607,2.637-2.4,10.219-9.622,23.719-16.416,37.162-22.709,3.3-1.549,16.887-3.118,20.505-3.031-9.469.847-28.81,3.849-37.412,7.7a207.185,207.185,0,0,0-24.4,13.7A25.622,25.622,0,0,0,222.808,166.4Z" transform="translate(-63.22 -48.012)"/><path class="c" d="M247.706,207.659c-.962,4.474,5.417,4.542,6.611.067.308-1.164.558-2.348.8-3.474,2.954-13.693,10.181-26.991,17.667-39.808,1.838-3.147,12.115-12.163,15.146-14.155-7.313,6.081-21.545,19.514-26.394,27.616a207.831,207.831,0,0,0-12.3,25.143,26.4,26.4,0,0,0-1.53,4.609Z" transform="translate(-64.196 -48.321)"/><path class="c" d="M297.46,46.427c-2.29-4.657-8.814-.828-6.736,3.945.539,1.251,1.145,2.473,1.722,3.637,7.034,14.232,9.449,30.676,11.258,46.852.443,3.964.828,8.2-.789,11.845,2.945-9.959,3.339-20.592,2.319-30.888s-3.416-20.332-5.956-30.272a27.266,27.266,0,0,0-1.819-5.119Z" transform="translate(-65.809 -44.32)"/><path class="c" d="M259.714,54.575a.866.866,0,0,0,.395.125c.26,0,.433-.26.539-.491.568-1.241.24-2.887,1.126-3.849a13.55,13.55,0,0,1,2.127,3.5l3.349-.962a4.946,4.946,0,0,1-.635,3.849,5.006,5.006,0,0,1,1.578,1.078,1.723,1.723,0,0,1,.414,1.771,8.5,8.5,0,0,1-2.367.231,15.739,15.739,0,0,1-.25,4.407.8.8,0,0,1-.289.558c-.24.154-.568,0-.818-.135a7.7,7.7,0,0,1-2.752-2.887l-1.251,2.973a1.346,1.346,0,0,1-.548.751.9.9,0,0,1-1.049-.366A2.51,2.51,0,0,1,258.915,64l-.471-2.829a.673.673,0,0,0-.154-.4.721.721,0,0,0-.491-.144h-3.551c-.2-.635.423-1.212,1.03-1.482s1.318-.462,1.626-1.049c.616-1.2-.962-2.887-.3-3.9C257.4,52.9,258.684,54.065,259.714,54.575Z" transform="translate(-64.445 -44.548)"/><path class="b" d="M326.672,71.091c2.329-3.166,7.14.269,4.965,3.551-.568.856-1.193,1.684-1.78,2.483-7.169,9.622-10.893,21.429-14.087,33.053-.789,2.887-1.549,5.889-.654,8.66a54.469,54.469,0,0,1,1.492-22.748A141.27,141.27,0,0,1,324.661,74.6,19.5,19.5,0,0,1,326.672,71.091Z" transform="translate(-66.722 -45.283)"/><path class="c" d="M373.369,92.3c4.811-.144,5.456,7.188.635,7.573-1.261.106-2.531.135-3.743.164-14.819.4-28.819,5.773-42.281,11.547-3.3,1.414-6.736,3-8.66,6.033,6.062-7.034,14.049-12.182,22.555-15.973s17.551-6.264,26.558-8.583A23.251,23.251,0,0,1,373.369,92.3Z" transform="translate(-66.904 -46.132)"/><path class="b" d="M372.634,111c3.05.115,2.367,4.455-.712,4.484-.8,0-1.607,0-2.377-.067-9.343-.375-18.908,2.2-28.184,5.042-2.281.693-4.686,1.482-6.341,3.185a50.825,50.825,0,0,1,16.474-8.458,127.33,127.33,0,0,1,17.936-3.945A16.241,16.241,0,0,1,372.634,111Z" transform="translate(-67.496 -46.837)"/><path class="d" d="M367.5,66.909c1.848-.318,1.982,2.357.154,2.771-.481.106-.962.183-1.434.26-5.629.962-11.008,3.714-16.195,6.591a8.756,8.756,0,0,0-3.378,2.714,30.879,30.879,0,0,1,8.766-7.149,75.776,75.776,0,0,1,10.2-4.628,10.079,10.079,0,0,1,1.886-.558Z" transform="translate(-67.935 -45.172)"/><path class="d" d="M318.449,199.737c-.414,1.828-2.945.962-2.608-.962.087-.491.193-.962.3-1.424,1.289-5.562.818-11.6.173-17.484a8.854,8.854,0,0,0-1.2-4.167,30.983,30.983,0,0,1,3.214,10.873,76.667,76.667,0,0,1,.337,11.21A10.1,10.1,0,0,1,318.449,199.737Z" transform="translate(-66.745 -49.28)"/><path class="b" d="M366,186.982c1.434,2.434-2.088,2.261-3.637-.173-.414-.635-.779-1.27-1.145-1.925-4.369-7.438-11.027-14.8-17.724-21.91a24.58,24.58,0,0,0-5.5-4.744,86.724,86.724,0,0,1,14.434,12.317c4.3,4.5,8.1,9.189,11.826,13.876A22.587,22.587,0,0,1,366,186.982Z" transform="translate(-67.609 -48.621)"/><path class="d" d="M234.307,186.982c-1.434,2.434,2.1,2.261,3.647-.173.4-.635.779-1.27,1.135-1.924,4.369-7.438,11.027-14.8,17.734-21.91a24.529,24.529,0,0,1,5.494-4.744,87.5,87.5,0,0,0-14.434,12.317c-4.3,4.5-8.1,9.189-11.816,13.876A22.67,22.67,0,0,0,234.307,186.982Z" transform="translate(-63.681 -48.621)"/><path class="d" d="M282.868,199.737c.414,1.828,2.935.962,2.608-.962-.087-.491-.2-.962-.308-1.424-1.28-5.562-.818-11.6-.164-17.484A8.949,8.949,0,0,1,286.2,175.7a30.966,30.966,0,0,0-3.214,10.873,76.669,76.669,0,0,0-.346,11.21A10.108,10.108,0,0,0,282.868,199.737Z" transform="translate(-65.516 -49.28)"/><path class="d" d="M352.181,85.909c1.838-.327,1.973,2.358.144,2.762-.481.106-.962.192-1.424.269-5.629.962-11.018,3.714-16.2,6.582a8.929,8.929,0,0,0-3.377,2.714,30.973,30.973,0,0,1,8.766-7.14A77.154,77.154,0,0,1,350.3,86.457,9.619,9.619,0,0,1,352.181,85.909Z" transform="translate(-67.357 -45.889)"/><path class="d" d="M334.6,48.6c1.588-.962,2.714,1.453,1.174,2.511-.414.279-.828.539-1.232.779-4.859,2.993-8.824,7.563-12.557,12.163a8.95,8.95,0,0,0-2.127,3.782,31.1,31.1,0,0,1,5.466-9.9,76.2,76.2,0,0,1,7.7-8.112A10.488,10.488,0,0,1,334.6,48.6Z" transform="translate(-66.924 -44.473)"/><path class="c" d="M395.208,140.32c4.667,2.406.722,9-4.07,6.813-1.251-.577-2.483-1.222-3.647-1.828-14.26-7.39-30.792-10.113-47.15-12.211-3.993-.51-8.256-.962-11.951.616,10.075-2.839,20.8-3.079,31.186-1.867s20.457,3.8,30.455,6.543A27.915,27.915,0,0,1,395.208,140.32Z" transform="translate(-67.246 -47.598)"/><path class="b" d="M381.421,166.4c3.349,3.127-1.924,6.822-5.4,3.849-.962-.779-1.8-1.607-2.636-2.4-10.248-9.632-23.72-16.454-37.191-22.747-3.3-1.549-16.887-3.118-20.515-3.031,9.478.847,28.819,3.849,37.422,7.7a207.184,207.184,0,0,1,24.4,13.7A25.616,25.616,0,0,1,381.421,166.4Z" transform="translate(-66.766 -48.01)"/><path class="c" d="M341.637,212.789c.414,4.561-5.947,3.849-6.563-.76-.164-1.193-.26-2.4-.366-3.541-1.212-13.962-6.736-28.059-12.509-41.713-1.434-3.349-10.5-13.587-13.26-15.935,6.5,6.947,18.927,22.055,22.728,30.705a207.683,207.683,0,0,1,9.055,26.481A26.079,26.079,0,0,1,341.637,212.789Z" transform="translate(-66.512 -48.342)"/><path class="c" d="M346.538,54.575a.828.828,0,0,1-.394.125c-.25,0-.424-.26-.529-.491-.577-1.241-.25-2.887-1.126-3.849a13.546,13.546,0,0,0-2.127,3.5L339,52.9a4.984,4.984,0,0,0,.635,3.849,5.112,5.112,0,0,0-1.578,1.078,1.741,1.741,0,0,0-.4,1.771,8.5,8.5,0,0,0,2.367.231,15.388,15.388,0,0,0,.25,4.407.8.8,0,0,0,.289.558c.241.154.568,0,.818-.135a7.883,7.883,0,0,0,2.752-2.887l1.251,2.973a1.26,1.26,0,0,0,.548.751.9.9,0,0,0,1.049-.366A2.637,2.637,0,0,0,347.346,64l.471-2.829a.673.673,0,0,1,.154-.4.722.722,0,0,1,.491-.144h3.551c.2-.635-.423-1.212-1.03-1.482s-1.328-.462-1.626-1.049c-.616-1.2.962-2.887.3-3.9C348.866,52.9,347.606,54.065,346.538,54.575Z" transform="translate(-67.592 -44.548)"/><path class="d" d="M357.048,197.984a.846.846,0,0,1-.395.115c-.26,0-.433-.26-.539-.491-.568-1.232-.24-2.839-1.116-3.849a13.325,13.325,0,0,0-2.136,3.57l-3.349-1.03a4.956,4.956,0,0,0,.635,3.849,4.974,4.974,0,0,0-1.578,1.068,1.752,1.752,0,0,0-.414,1.771,8.5,8.5,0,0,0,2.367.241,15.672,15.672,0,0,0,.25,4.4.875.875,0,0,0,.289.568c.25.154.568,0,.818-.144a7.632,7.632,0,0,0,2.752-2.887l1.251,2.973a1.329,1.329,0,0,0,.558.741.876.876,0,0,0,1.039-.356,2.7,2.7,0,0,0,.375-1.126l.462-2.839a.674.674,0,0,1,.154-.4.731.731,0,0,1,.5-.135c1.174,0,2.357-.048,3.541,0,.2-.626-.423-1.212-1.029-1.482s-1.318-.462-1.626-1.049c-.616-1.193.962-2.887.3-3.849C359.367,196.271,358.077,197.474,357.048,197.984Z" transform="translate(-67.989 -49.962)"/><path class="c" d="M386.558,101.835a.75.75,0,0,1-.395.115c-.26,0-.433-.25-.539-.481-.568-1.241-.241-2.887-1.126-3.849a13.6,13.6,0,0,0-2.127,3.58l-3.349-1.039a4.955,4.955,0,0,0,.635,3.849,5.137,5.137,0,0,0-1.578,1.068,1.742,1.742,0,0,0-.414,1.78,8.5,8.5,0,0,0,2.367.231,15.768,15.768,0,0,0,.25,4.407.8.8,0,0,0,.289.558c.241.154.568,0,.818-.135a7.7,7.7,0,0,0,2.752-2.887l1.251,2.973a1.348,1.348,0,0,0,.549.751.9.9,0,0,0,1.049-.366,2.511,2.511,0,0,0,.366-1.126l.471-2.887a.673.673,0,0,1,.154-.395.721.721,0,0,1,.491-.144h3.551c.2-.625-.423-1.212-1.03-1.472s-1.318-.462-1.626-1.049c-.616-1.2.962-2.887.3-3.849C388.877,100.151,387.606,101.344,386.558,101.835Z" transform="translate(-69.103 -46.332)"/><path class="c" d="M268.438,212.3a1.136,1.136,0,0,1-.548.164c-.356,0-.6-.356-.751-.674-.789-1.732-.337-3.974-1.559-5.427a18.529,18.529,0,0,0-2.964,4.984l-4.7-1.482a6.967,6.967,0,0,0,.885,5.35,7.109,7.109,0,0,0-2.2,1.5,2.435,2.435,0,0,0-.568,2.463,11.922,11.922,0,0,0,3.3.337,21.845,21.845,0,0,0,.346,6.13,1.106,1.106,0,0,0,.4.779c.337.221.789,0,1.135-.183a10.854,10.854,0,0,0,3.849-4.08l1.742,4.147a1.924,1.924,0,0,0,.77,1.039,1.232,1.232,0,0,0,1.453-.5,3.609,3.609,0,0,0,.52-1.578l.645-3.945a1.028,1.028,0,0,1,.221-.558.963.963,0,0,1,.693-.2c1.645,0,3.291-.058,4.936-.048.289-.876-.587-1.684-1.434-2.059s-1.838-.645-2.261-1.463c-.866-1.665,1.357-3.984.414-5.427C271.681,209.92,269.882,211.585,268.438,212.3Z" transform="translate(-64.51 -50.438)"/><path class="c" d="M219.359,104.657a1.144,1.144,0,0,1-.558.164c-.346,0-.6-.356-.741-.674-.8-1.732-.337-3.974-1.559-5.427a18.551,18.551,0,0,0-2.973,4.984l-4.667-1.453a6.919,6.919,0,0,0,.876,5.35,7.063,7.063,0,0,0-2.194,1.5,2.434,2.434,0,0,0-.577,2.463,11.922,11.922,0,0,0,3.3.337,21.494,21.494,0,0,0,.356,6.129.866.866,0,0,0,1.54.6,10.855,10.855,0,0,0,3.849-4.08l1.732,4.147a1.829,1.829,0,0,0,.779,1.039,1.241,1.241,0,0,0,1.453-.5,3.55,3.55,0,0,0,.51-1.578l.654-3.945a.729.729,0,0,1,.9-.751c1.645,0,3.291-.067,4.946-.058.279-.876-.6-1.684-1.434-2.059s-1.848-.645-2.271-1.463c-.856-1.665,1.366-3.984.423-5.427C222.592,102.28,220.793,103.945,219.359,104.657Z" transform="translate(-62.657 -46.374)"/><path class="d" d="M368.529,171.426a.557.557,0,0,1-.289.087c-.192,0-.317-.192-.4-.356-.423-.962-.173-2.107-.828-2.887a10.1,10.1,0,0,0-1.578,2.646l-2.482-.77a3.752,3.752,0,0,0,.471,2.887,3.61,3.61,0,0,0-1.164.789,1.289,1.289,0,0,0-.308,1.309,6.343,6.343,0,0,0,1.751.183,11.542,11.542,0,0,0,.192,3.252.578.578,0,0,0,.212.414.6.6,0,0,0,.606-.1,5.88,5.88,0,0,0,2.04-2.165l.962,2.2a.962.962,0,0,0,.4.549.664.664,0,0,0,.779-.26,1.923,1.923,0,0,0,.269-.837l.346-2.1a.538.538,0,0,1,.115-.3.472.472,0,0,1,.366-.106h2.627c.144-.462-.317-.895-.77-1.087a2.218,2.218,0,0,1-1.2-.779c-.452-.885.731-2.117.231-2.887S369.289,171.041,368.529,171.426Z" transform="translate(-68.511 -49)"/><path class="d" d="M301.849,209.926a.77.77,0,0,1-.289.087.539.539,0,0,1-.395-.366c-.423-.914-.183-2.107-.837-2.887a9.946,9.946,0,0,0-1.578,2.646l-2.473-.77a3.685,3.685,0,0,0,.462,2.839,4.041,4.041,0,0,0-1.164.8,1.289,1.289,0,0,0-.308,1.309,5.983,5.983,0,0,0,1.751.173,11.551,11.551,0,0,0,.192,3.262.6.6,0,0,0,.212.414c.183.115.423,0,.606-.1a5.87,5.87,0,0,0,2.04-2.165l.962,2.2a.963.963,0,0,0,.4.548.674.674,0,0,0,.779-.269,1.921,1.921,0,0,0,.269-.837l.346-2.1a.511.511,0,0,1,.115-.289.5.5,0,0,1,.366-.106h2.627c.144-.462-.318-.895-.76-1.1s-.962-.337-1.2-.779c-.462-.885.722-2.117.221-2.887S302.619,209.541,301.849,209.926Z" transform="translate(-65.993 -50.453)"/><path class="b" d="M237.32,75.186a.721.721,0,0,1-.289.087.539.539,0,0,1-.395-.366c-.423-.962-.183-2.107-.828-2.887a9.459,9.459,0,0,0-1.578,2.646l-2.483-.77a3.647,3.647,0,0,0,.472,2.887,3.964,3.964,0,0,0-1.174.8,1.28,1.28,0,0,0-.3,1.309,5.927,5.927,0,0,0,1.751.173,11.55,11.55,0,0,0,.183,3.262.6.6,0,0,0,.212.414c.183.115.423,0,.606-.1a5.773,5.773,0,0,0,2.04-2.165l.962,2.2a.962.962,0,0,0,.414.548.664.664,0,0,0,.77-.269,1.924,1.924,0,0,0,.269-.837l.346-2.1a.491.491,0,0,1,.116-.289.5.5,0,0,1,.366-.106h2.627c.154-.462-.318-.895-.76-1.1s-.962-.337-1.2-.779c-.462-.885.722-2.117.221-2.887S238.089,74.8,237.32,75.186Z" transform="translate(-63.557 -45.366)"/><path class="b" d="M271.669,151.106a.567.567,0,0,1-.3.087c-.183,0-.318-.183-.395-.356-.423-.914-.183-2.107-.827-2.887a9.7,9.7,0,0,0-1.578,2.646l-2.483-.77a3.723,3.723,0,0,0,.471,2.887,3.847,3.847,0,0,0-1.164.8,1.28,1.28,0,0,0-.308,1.309,5.959,5.959,0,0,0,1.751.173,11.545,11.545,0,0,0,.183,3.262.645.645,0,0,0,.212.414c.183.115.423,0,.606-.106a5.7,5.7,0,0,0,2.04-2.155l.962,2.2a1.04,1.04,0,0,0,.414.549.654.654,0,0,0,.77-.269,1.924,1.924,0,0,0,.279-.837l.346-2.1a.433.433,0,0,1,.115-.289.471.471,0,0,1,.366-.106h2.617c.154-.462-.308-.895-.76-1.1s-.962-.346-1.2-.779c-.452-.885.731-2.117.221-2.887S272.429,150.731,271.669,151.106Z" transform="translate(-64.854 -48.233)"/><path class="b" d="M246.739,121.506a.529.529,0,0,1-.289.087c-.192,0-.318-.183-.394-.356-.423-.914-.183-2.107-.837-2.887A9.938,9.938,0,0,0,243.641,121l-2.473-.77a3.685,3.685,0,0,0,.462,2.887,4.041,4.041,0,0,0-1.164.8,1.28,1.28,0,0,0-.308,1.309,5.982,5.982,0,0,0,1.751.173,11.549,11.549,0,0,0,.192,3.262.6.6,0,0,0,.212.414c.183.115.423,0,.606-.106a5.7,5.7,0,0,0,2.04-2.155l.962,2.2a.963.963,0,0,0,.4.548.674.674,0,0,0,.779-.269,1.926,1.926,0,0,0,.269-.837l.346-2.1a.49.49,0,0,1,.116-.289.5.5,0,0,1,.366-.106h2.627c.144-.462-.318-.895-.76-1.1s-.962-.346-1.2-.779c-.462-.885.722-2.117.221-2.887S247.509,121.131,246.739,121.506Z" transform="translate(-63.912 -47.115)"/><path class="b" d="M353.8,128.476a.558.558,0,0,1-.289.087c-.192,0-.317-.183-.4-.356-.414-.914-.173-2.107-.828-2.887a9.946,9.946,0,0,0-1.578,2.646l-2.473-.77a3.685,3.685,0,0,0,.462,2.839,3.638,3.638,0,0,0-1.164.8,1.279,1.279,0,0,0-.308,1.309,6.331,6.331,0,0,0,1.751.173,11.551,11.551,0,0,0,.192,3.262.6.6,0,0,0,.212.414c.183.115.423,0,.606-.106a5.851,5.851,0,0,0,2.04-2.155l.962,2.194a.961.961,0,0,0,.4.558.673.673,0,0,0,.779-.269,1.925,1.925,0,0,0,.269-.837l.346-2.1a.539.539,0,0,1,.116-.3.51.51,0,0,1,.366-.1h2.627c.144-.462-.318-.895-.76-1.1s-.962-.346-1.2-.779c-.462-.885.722-2.117.221-2.887S354.569,128.1,353.8,128.476Z" transform="translate(-67.954 -47.378)"/><path class="d" d="M301.849,122.656a.529.529,0,0,1-.289.087c-.192,0-.318-.192-.395-.356-.423-.962-.183-2.107-.837-2.887a10.257,10.257,0,0,0-1.578,2.646l-2.473-.77a3.7,3.7,0,0,0,.462,2.887,3.851,3.851,0,0,0-1.164.789,1.3,1.3,0,0,0-.308,1.318,6.737,6.737,0,0,0,1.751.173,11.547,11.547,0,0,0,.192,3.252.559.559,0,0,0,.212.414c.183.125.423,0,.606-.1a5.772,5.772,0,0,0,2.04-2.165l.962,2.2a.962.962,0,0,0,.4.548.654.654,0,0,0,.779-.26,1.924,1.924,0,0,0,.27-.837l.346-2.1a.539.539,0,0,1,.116-.3.606.606,0,0,1,.366-.106h2.627c.144-.462-.317-.895-.76-1.087a2.254,2.254,0,0,1-1.2-.779c-.462-.885.722-2.117.221-2.887S302.619,122.281,301.849,122.656Z" transform="translate(-65.993 -47.159)"/><path class="e" d="M285.549,129.746a.558.558,0,0,1-.289.087c-.193,0-.317-.183-.4-.356-.423-.962-.173-2.107-.827-2.887a10.252,10.252,0,0,0-1.578,2.646l-2.483-.76a3.724,3.724,0,0,0,.471,2.839,3.773,3.773,0,0,0-1.164.789,1.3,1.3,0,0,0-.308,1.318,6.734,6.734,0,0,0,1.751.173,11.615,11.615,0,0,0,.193,3.262.6.6,0,0,0,.212.414c.183.116.423,0,.606-.106a5.776,5.776,0,0,0,2.04-2.165l.962,2.2a.962.962,0,0,0,.4.558.674.674,0,0,0,.779-.269,1.925,1.925,0,0,0,.269-.837l.346-2.1a.538.538,0,0,1,.115-.3.567.567,0,0,1,.366-.106h2.627c.144-.472-.317-.9-.76-1.1a2.254,2.254,0,0,1-1.2-.779c-.462-.885.722-2.117.221-2.887S286.319,129.371,285.549,129.746Z" transform="translate(-65.378 -47.426)"/><path class="d" d="M270.359,86.876a.568.568,0,0,1-.3.087c-.183,0-.318-.183-.394-.356-.423-.962-.183-2.107-.828-2.887a9.8,9.8,0,0,0-1.578,2.637l-2.483-.76a3.647,3.647,0,0,0,.472,2.887,3.936,3.936,0,0,0-1.174.789,1.318,1.318,0,0,0-.3,1.318,6.3,6.3,0,0,0,1.751.173,11.611,11.611,0,0,0,.183,3.262.6.6,0,0,0,.212.414c.183.116.423,0,.606-.106a5.658,5.658,0,0,0,2.04-2.165l.962,2.2a1.03,1.03,0,0,0,.414.558.654.654,0,0,0,.779-.356,1.925,1.925,0,0,0,.279-.837l.337-2.1a.54.54,0,0,1,.115-.3.607.607,0,0,1,.366-.106h2.627c.154-.471-.308-.9-.76-1.1a2.219,2.219,0,0,1-1.2-.779c-.452-.885.722-2.117.221-2.887S271.119,86.453,270.359,86.876Z" transform="translate(-64.804 -45.808)"/><path class="e" d="M300.289,142.876a.664.664,0,0,1-.3.087c-.183,0-.318-.192-.395-.366-.424-.914-.183-2.1-.828-2.887a9.841,9.841,0,0,0-1.578,2.646l-2.483-.77a3.667,3.667,0,0,0,.471,2.887,3.764,3.764,0,0,0-1.174.789,1.309,1.309,0,0,0-.3,1.309,6.305,6.305,0,0,0,1.751.183,11.552,11.552,0,0,0,.183,3.252.644.644,0,0,0,.212.414.6.6,0,0,0,.606-.1,5.773,5.773,0,0,0,2.04-2.165l.962,2.2a.962.962,0,0,0,.414.549.664.664,0,0,0,.77-.26,1.925,1.925,0,0,0,.279-.837l.346-2.1a.395.395,0,0,1,.481-.4h2.617c.154-.462-.308-.895-.76-1.087a2.218,2.218,0,0,1-1.2-.779c-.452-.885.722-2.117.221-2.887S301.049,142.452,300.289,142.876Z" transform="translate(-65.934 -47.922)"/><g class="a" transform="translate(667.999 238.893)"><ellipse class="f" cx="17.311" cy="22.661" rx="17.311" ry="22.661" transform="translate(66.003 467.319)"/><path class="f" d="M850.783,699.567A27.24,27.24,0,0,0,854.4,685.72c0-12.509-7.756-22.67-17.32-22.67S819.76,673.2,819.76,685.72a27.336,27.336,0,0,0,3.647,13.847,28.327,28.327,0,0,0,0,27.7,28.309,28.309,0,0,0,0,27.693,27.393,27.393,0,0,0-3.618,13.857c0,12.509,7.756,22.661,17.32,22.661s17.321-10.142,17.321-22.661a27.3,27.3,0,0,0-3.647-13.828,28.309,28.309,0,0,0,0-27.694,28.328,28.328,0,0,0,0-27.732Z" transform="translate(-753.796 -306.572)"/><ellipse class="f" cx="17.311" cy="22.661" rx="17.311" ry="22.661" transform="translate(66.003 328.813)"/><ellipse class="f" cx="17.311" cy="22.661" rx="17.311" ry="22.661" transform="translate(66.003 301.12)"/><path class="c" d="M899.329,426.8a81.979,81.979,0,0,0,6.447-9.5l-45.495-7.467,49.2.366a83.09,83.09,0,0,0,1.588-65.712l-66.01,34.246,60.872-44.754A82.936,82.936,0,1,0,768.963,426.8a83.247,83.247,0,0,0-9.459,15.117L818.558,472.6,755.6,451.428A82.964,82.964,0,0,0,768.963,529.3a82.926,82.926,0,1,0,130.365,0,82.936,82.936,0,0,0,0-102.537Z" transform="translate(-751.208 -292.586)"/><path class="g" d="M751.22,485.3a82.57,82.57,0,0,0,17.744,51.268,82.926,82.926,0,1,0,130.365,0C910.443,522.493,751.22,476,751.22,485.3Z" transform="translate(-751.208 -299.815)"/></g><g class="a" transform="translate(75.458 238.893)"><ellipse class="f" cx="17.311" cy="22.661" rx="17.311" ry="22.661" transform="translate(65.242 467.319)"/><path class="f" d="M234.233,699.567a27.337,27.337,0,0,0,3.618-13.847c0-12.509-7.756-22.67-17.32-22.67s-17.32,10.152-17.32,22.67a27.24,27.24,0,0,0,3.647,13.847,28.329,28.329,0,0,0,0,27.7,28.309,28.309,0,0,0,0,27.693,27.3,27.3,0,0,0-3.618,13.857c0,12.509,7.756,22.661,17.32,22.661s17.32-10.142,17.32-22.661a27.394,27.394,0,0,0-3.618-13.857,28.309,28.309,0,0,0,0-27.693,28.329,28.329,0,0,0,0-27.7Z" transform="translate(-137.978 -306.572)"/><ellipse class="f" cx="17.311" cy="22.661" rx="17.311" ry="22.661" transform="translate(65.242 328.813)"/><ellipse class="f" cx="17.311" cy="22.661" rx="17.311" ry="22.661" transform="translate(65.242 301.12)"/><path class="c" d="M153.164,426.8a81.946,81.946,0,0,1-6.447-9.5l45.495-7.467-49.2.366a83.09,83.09,0,0,1-1.588-65.712l66.01,34.246-60.872-44.754A82.936,82.936,0,1,1,283.529,426.8a83.252,83.252,0,0,1,9.459,15.117L233.935,472.6l62.96-21.169A82.965,82.965,0,0,1,283.529,529.3a82.926,82.926,0,1,1-130.365,0,82.936,82.936,0,0,1,0-102.537Z" transform="translate(-135.419 -292.586)"/><path class="g" d="M301.273,485.3a82.57,82.57,0,0,1-17.744,51.268,82.926,82.926,0,1,1-130.365,0C142.05,522.493,301.273,476,301.273,485.3Z" transform="translate(-135.419 -299.816)"/></g><g class="a" transform="translate(353.643 238.939)"><ellipse class="f" cx="17.311" cy="22.661" rx="17.311" ry="22.661" transform="translate(65.242 467.272)"/><path class="f" d="M523.332,699.567a27.325,27.325,0,0,0,3.609-13.847c0-12.509-7.7-22.67-17.32-22.67S492.3,673.2,492.3,685.72a27.239,27.239,0,0,0,3.637,13.847,28.329,28.329,0,0,0,0,27.7,28.309,28.309,0,0,0,0,27.693,27.3,27.3,0,0,0-3.618,13.857c0,12.509,7.756,22.661,17.32,22.661s17.32-10.142,17.32-22.661a27.4,27.4,0,0,0-3.609-13.857,28.367,28.367,0,0,0,0-27.693,28.387,28.387,0,0,0,0-27.7Z" transform="translate(-427.078 -306.619)"/><ellipse class="f" cx="17.311" cy="22.661" rx="17.311" ry="22.661" transform="translate(65.242 328.767)"/><ellipse class="f" cx="17.311" cy="22.661" rx="17.311" ry="22.661" transform="translate(65.242 301.073)"/><path class="c" d="M442.3,426.806a81.955,81.955,0,0,1-6.447-9.5l45.485-7.467-49.19.366a83.089,83.089,0,0,1-1.588-65.712l66.01,34.246-60.881-44.754a82.936,82.936,0,1,1,136.976,92.818,82.673,82.673,0,0,1,9.449,15.117L523.035,472.6l62.96-21.169A82.964,82.964,0,0,1,572.629,529.3a82.926,82.926,0,1,1-130.365,0,82.936,82.936,0,0,1,0-102.537Z" transform="translate(-424.519 -292.634)"/><path class="g" d="M590.373,485.3a82.57,82.57,0,0,1-17.744,51.268,82.926,82.926,0,1,1-130.365,0C431.15,522.493,590.373,476,590.373,485.3Z" transform="translate(-424.519 -299.862)"/></g><g class="h" transform="translate(459.545 118.393)"><path class="b" d="M580.326,184.232a1.924,1.924,0,0,0-3.127,2.232c.356.539.75,1.058,1.126,1.559,4.513,6.1,6.851,13.471,8.872,20.823.491,1.8.962,3.714.4,5.494A34.241,34.241,0,0,0,586.638,200a89.267,89.267,0,0,0-5.071-13.539A12.014,12.014,0,0,0,580.326,184.232Z" transform="translate(-536.173 -167.968)"/><path class="c" d="M549.9,197.59c-3.05-.1-3.435,4.522-.4,4.763.8.067,1.6.087,2.367.106,9.334.25,18.148,3.637,26.625,7.275,2.088.895,4.272,1.924,5.485,3.849a39.98,39.98,0,0,0-14.2-10.065A105.136,105.136,0,0,0,553.01,198.1,14.338,14.338,0,0,0,549.9,197.59Z" transform="translate(-535.06 -168.499)"/><path class="d" d="M550.831,209.39c-1.924.067-1.491,2.81.452,2.819h1.491c5.889-.24,11.912,1.386,17.763,3.175a9.036,9.036,0,0,1,3.993,2.011,32.044,32.044,0,0,0-10.383-5.331,79.215,79.215,0,0,0-11.277-2.521A10.873,10.873,0,0,0,550.831,209.39Z" transform="translate(-535.142 -168.945)"/><path class="b" d="M591.767,261.242c.549,1.848,3.089.751,2.627-1.135-.125-.491-.27-.962-.414-1.434-1.684-5.648-1.607-11.884-1.328-17.994a9.11,9.11,0,0,1,.963-4.369A32.175,32.175,0,0,0,591,247.684a79.908,79.908,0,0,0,.395,11.547A10.965,10.965,0,0,0,591.767,261.242Z" transform="translate(-536.703 -169.961)"/><path class="d" d="M554.494,181.589c-1.164-.2-1.251,1.491-.1,1.742l.895.173c3.551.606,6.938,2.338,10.21,4.147a5.536,5.536,0,0,1,2.127,1.7,19.488,19.488,0,0,0-5.523-4.494,48.833,48.833,0,0,0-6.428-2.887A7.247,7.247,0,0,0,554.494,181.589Z" transform="translate(-535.292 -167.895)"/><path class="c" d="M535.888,227.832c-2.935,1.511-.452,5.668,2.569,4.292.789-.366,1.559-.77,2.29-1.145,8.987-4.667,19.418-6.38,29.676-7.7,2.521-.327,5.206-.606,7.535.385a51,51,0,0,0-19.649-1.174,128.353,128.353,0,0,0-19.177,4.128,17.092,17.092,0,0,0-3.243,1.212Z" transform="translate(-534.575 -169.422)"/><path class="b" d="M544.643,244.258c-2.117,1.924,1.183,4.292,3.4,2.406.578-.5,1.135-1.02,1.655-1.511,6.437-6.043,14.944-10.344,23.411-14.309,2.079-.962,10.585-1.924,12.923-1.924-5.966.539-18.157,2.4-23.575,4.811a130.7,130.7,0,0,0-15.4,8.66A16.346,16.346,0,0,0,544.643,244.258Z" transform="translate(-534.93 -169.682)"/><path class="c" d="M560.318,270.251c-.616,2.819,3.416,2.887,4.167,0,.192-.731.356-1.472.51-2.184,1.857-8.66,6.409-17,11.124-25.076,1.155-1.982,7.63-7.7,9.545-8.91-4.609,3.849-13.577,12.288-16.627,17.388a130.885,130.885,0,0,0-7.7,15.839,17.2,17.2,0,0,0-1.02,2.944Z" transform="translate(-535.544 -169.877)"/><path class="c" d="M591.664,168.688c-1.444-2.935-5.552-.52-4.244,2.492.337.779.722,1.549,1.087,2.29,4.426,8.959,5.956,19.322,7.092,29.512.279,2.492.52,5.158-.5,7.457a50.992,50.992,0,0,0,1.463-19.457,128.988,128.988,0,0,0-3.753-19.072A17.169,17.169,0,0,0,591.664,168.688Z" transform="translate(-536.561 -167.358)"/><path class="c" d="M567.862,173.825a.433.433,0,0,0,.241.067.423.423,0,0,0,.337-.3c.366-.789.154-1.8.712-2.454a8.443,8.443,0,0,1,1.338,2.252l2.117-.654a3.136,3.136,0,0,1-.4,2.415,3.271,3.271,0,0,1,.962.674,1.106,1.106,0,0,1,.25,1.116,5.132,5.132,0,0,1-1.491.154,9.632,9.632,0,0,1-.154,2.771.54.54,0,0,1-.183.356.5.5,0,0,1-.51-.086,4.908,4.908,0,0,1-1.742-1.838l-.779,1.867a.846.846,0,0,1-.356.472.558.558,0,0,1-.654-.221,1.718,1.718,0,0,1-.231-.712l-.3-1.79a.4.4,0,0,0-.1-.25.433.433,0,0,0-.308-.087h-2.232c-.135-.394.26-.76.645-.962s.828-.3,1.02-.664c.395-.76-.616-1.809-.183-2.454S567.237,173.5,567.862,173.825Z" transform="translate(-535.7 -167.501)"/><path class="b" d="M610.061,184.228a1.925,1.925,0,0,1,3.137,2.232c-.366.539-.75,1.059-1.126,1.559-4.513,6.1-6.861,13.471-8.872,20.823a9.884,9.884,0,0,0-.414,5.494A34.245,34.245,0,0,1,603.748,200a88.275,88.275,0,0,1,5.071-13.539A11.93,11.93,0,0,1,610.061,184.228Z" transform="translate(-537.137 -167.965)"/><path class="c" d="M639.483,197.59c3.041-.1,3.435,4.522.395,4.763-.789.067-1.6.087-2.358.106-9.333.25-18.158,3.637-26.635,7.275-2.078.895-4.263,1.924-5.475,3.849a39.981,39.981,0,0,1,14.2-10.065,105.354,105.354,0,0,1,16.753-5.417,14.515,14.515,0,0,1,3.118-.51Z" transform="translate(-537.25 -168.499)"/><path class="b" d="M639.07,209.39c1.925.067,1.482,2.81-.452,2.819h-1.491c-5.889-.241-11.913,1.386-17.763,3.175a8.986,8.986,0,0,0-3.993,2.011,31.945,31.945,0,0,1,10.382-5.331,79.216,79.216,0,0,1,11.3-2.483,10.875,10.875,0,0,1,2.021-.192Z" transform="translate(-537.626 -168.945)"/><path class="d" d="M635.785,181.589c1.164-.2,1.251,1.491.1,1.742l-.9.173c-3.541.606-6.938,2.338-10.2,4.147a5.537,5.537,0,0,0-2.127,1.7,19.45,19.45,0,0,1,5.514-4.494,49.53,49.53,0,0,1,6.438-2.887A6.987,6.987,0,0,1,635.785,181.589Z" transform="translate(-537.9 -167.895)"/><path class="d" d="M604.918,265.267c-.26,1.145-1.847.577-1.636-.587a4,4,0,0,1,.192-.895c.808-3.5.51-7.3.106-11.018a5.563,5.563,0,0,0-.76-2.617,19.417,19.417,0,0,1,2.021,6.822,49.583,49.583,0,0,1,.221,7.063A5.994,5.994,0,0,1,604.918,265.267Z" transform="translate(-537.152 -170.484)"/><path class="b" d="M634.838,257.23c.9,1.53-1.318,1.424-2.29-.106-.26-.4-.491-.808-.722-1.193-2.752-4.686-6.948-9.324-11.172-13.8a15.46,15.46,0,0,0-3.454-2.993,55.188,55.188,0,0,1,9.074,7.756c2.714,2.887,5.1,5.774,7.448,8.737a14.449,14.449,0,0,1,1.116,1.6Z" transform="translate(-537.695 -170.068)"/><path class="d" d="M551.882,257.23c-.9,1.53,1.318,1.424,2.3-.106.25-.4.491-.808.712-1.193,2.752-4.686,6.948-9.324,11.172-13.8a15.51,15.51,0,0,1,3.464-2.993,55.263,55.263,0,0,0-9.084,7.756c-2.7,2.887-5.1,5.773-7.448,8.737A14.4,14.4,0,0,0,551.882,257.23Z" transform="translate(-535.221 -170.068)"/><path class="d" d="M582.473,265.267c.26,1.145,1.847.577,1.646-.587-.058-.308-.125-.606-.193-.895-.808-3.5-.519-7.3-.106-11.018a5.448,5.448,0,0,1,.75-2.617,19.422,19.422,0,0,0-2.021,6.822,48.184,48.184,0,0,0-.212,7.063A6.747,6.747,0,0,0,582.473,265.267Z" transform="translate(-536.377 -170.484)"/><path class="d" d="M626.154,193.559c1.155-.2,1.241,1.482.086,1.742-.3.067-.606.115-.895.164-3.551.606-6.938,2.338-10.209,4.157a5.612,5.612,0,0,0-2.127,1.7,19.519,19.519,0,0,1,5.524-4.5,48.768,48.768,0,0,1,6.428-2.887A6.286,6.286,0,0,1,626.154,193.559Z" transform="translate(-537.537 -168.347)"/><path class="d" d="M615.056,170.064c.962-.625,1.713.9.741,1.578l-.77.491a33.7,33.7,0,0,0-7.919,7.7,5.443,5.443,0,0,0-1.328,2.386,19.543,19.543,0,0,1,3.435-6.245,48.945,48.945,0,0,1,4.869-5.11A6.162,6.162,0,0,1,615.056,170.064Z" transform="translate(-537.263 -167.455)"/><path class="c" d="M653.239,227.832c2.935,1.511.452,5.668-2.569,4.292-.789-.366-1.559-.77-2.3-1.145-8.978-4.667-19.409-6.38-29.666-7.7-2.521-.327-5.206-.606-7.535.385a51,51,0,0,1,19.64-1.174A128.234,128.234,0,0,1,650,226.62,17.6,17.6,0,0,1,653.239,227.832Z" transform="translate(-537.467 -169.422)"/><path class="b" d="M644.536,244.258c2.117,1.924-1.184,4.292-3.4,2.406-.577-.5-1.135-1.02-1.665-1.511-6.437-6.043-14.934-10.344-23.411-14.309-2.069-.962-10.633-1.924-12.914-1.924,5.966.539,18.148,2.4,23.565,4.811a130.075,130.075,0,0,1,15.4,8.66,16.381,16.381,0,0,1,2.425,1.867Z" transform="translate(-537.164 -169.682)"/><path class="c" d="M619.491,273.469c.26,2.887-3.753,2.415-4.138-.472-.1-.76-.164-1.511-.231-2.232-.76-8.795-4.234-17.676-7.9-26.279-.9-2.107-6.61-8.554-8.343-10.036,4.09,4.378,11.922,13.895,14.318,19.341a131.17,131.17,0,0,1,5.7,16.676A16.3,16.3,0,0,1,619.491,273.469Z" transform="translate(-537.003 -169.891)"/><path class="c" d="M622.58,173.825a.461.461,0,0,1-.25.067.452.452,0,0,1-.337-.3c-.356-.789-.154-1.8-.7-2.454a8.481,8.481,0,0,0-1.347,2.252l-2.107-.654a3.089,3.089,0,0,0,.4,2.415,3.273,3.273,0,0,0-.962.674,1.106,1.106,0,0,0-.26,1.116,5.214,5.214,0,0,0,1.491.154,9.944,9.944,0,0,0,.164,2.771.54.54,0,0,0,.183.356.5.5,0,0,0,.51-.087,4.907,4.907,0,0,0,1.742-1.838l.779,1.867a.874.874,0,0,0,.347.472.568.568,0,0,0,.664-.221,1.72,1.72,0,0,0,.231-.712l.3-1.79a.4.4,0,0,1,.1-.25.433.433,0,0,1,.308-.087h2.232c.135-.394-.269-.76-.645-.962s-.837-.3-1.03-.664c-.385-.76.625-1.809.193-2.454S623.234,173.5,622.58,173.825Z" transform="translate(-537.686 -167.501)"/><path class="d" d="M629.2,264.155a.586.586,0,0,1-.25.077c-.164,0-.27-.164-.337-.308-.356-.779-.154-1.8-.7-2.454a8.242,8.242,0,0,0-1.347,2.252l-2.107-.654a3.126,3.126,0,0,0,.395,2.415,3.208,3.208,0,0,0-.962.683,1.1,1.1,0,0,0-.26,1.116,5.565,5.565,0,0,0,1.491.144,9.915,9.915,0,0,0,.154,2.771.539.539,0,0,0,.183.356c.154.1.356,0,.52-.087a4.888,4.888,0,0,0,1.732-1.838l.789,1.867a.8.8,0,0,0,.346.472.558.558,0,0,0,.654-.221,1.7,1.7,0,0,0,.241-.712l.289-1.79a.566.566,0,0,1,.1-.25.442.442,0,0,1,.318-.087h2.232c.125-.395-.269-.76-.645-.962s-.837-.3-1.03-.664c-.385-.76.616-1.8.193-2.454S629.853,263.828,629.2,264.155Z" transform="translate(-537.935 -170.911)"/><path class="c" d="M647.779,203.6a.625.625,0,0,1-.25.077c-.163,0-.27-.164-.337-.308-.366-.779-.154-1.8-.712-2.454a8.451,8.451,0,0,0-1.338,2.252l-2.117-.654a3.136,3.136,0,0,0,.4,2.415,3.1,3.1,0,0,0-.962.683,1.1,1.1,0,0,0-.26,1.116,5.533,5.533,0,0,0,1.492.144,9.91,9.91,0,0,0,.154,2.771.539.539,0,0,0,.183.356.5.5,0,0,0,.51-.087,4.906,4.906,0,0,0,1.742-1.838l.789,1.867a.8.8,0,0,0,.346.472.558.558,0,0,0,.654-.221,1.555,1.555,0,0,0,.231-.712l.3-1.79a.4.4,0,0,1,.1-.25.433.433,0,0,1,.308-.087h2.242c.125-.395-.269-.76-.654-.962s-.827-.3-1.02-.664c-.395-.76.616-1.809.192-2.454S648.434,203.277,647.779,203.6Z" transform="translate(-538.637 -168.625)"/><path class="c" d="M573.382,273.173a.732.732,0,0,1-.347.106c-.221,0-.375-.231-.471-.433-.5-1.087-.212-2.492-.962-3.416a11.772,11.772,0,0,0-1.867,3.137l-2.945-.9a4.369,4.369,0,0,0,.558,3.368,4.426,4.426,0,0,0-1.385.962,1.53,1.53,0,0,0-.366,1.549,7.236,7.236,0,0,0,2.078.212,14.014,14.014,0,0,0,.221,3.849.731.731,0,0,0,.26.5c.212.135.491,0,.712-.125a6.956,6.956,0,0,0,2.425-2.56l1.087,2.608a1.145,1.145,0,0,0,.491.654.779.779,0,0,0,.962-.318,2.206,2.206,0,0,0,.327-.962l.4-2.483a.481.481,0,0,1,.577-.481h3.108c.183-.549-.375-1.068-.9-1.3s-1.155-.4-1.424-.962c-.539-1.049.856-2.511.26-3.416C575.422,271.672,574.3,272.721,573.382,273.173Z" transform="translate(-535.744 -171.212)"/><path class="c" d="M542.462,205.373a.721.721,0,0,1-.346.1c-.221,0-.375-.221-.472-.423-.5-1.087-.212-2.5-.962-3.416a11.777,11.777,0,0,0-1.867,3.137l-2.945-.914a4.37,4.37,0,0,0,.558,3.368,4.813,4.813,0,0,0-1.386.962,1.531,1.531,0,0,0-.356,1.559,7.483,7.483,0,0,0,2.069.212,14.03,14.03,0,0,0,.221,3.849.712.712,0,0,0,.26.491c.212.144.491,0,.712-.115a6.908,6.908,0,0,0,2.425-2.569l1.087,2.617a1.252,1.252,0,0,0,.491.654.8.8,0,0,0,.914-.318,2.238,2.238,0,0,0,.327-.962l.4-2.492a.625.625,0,0,1,.144-.346.568.568,0,0,1,.433-.125h3.108c.183-.558-.366-1.068-.9-1.3s-1.155-.414-1.424-.962c-.539-1.049.856-2.511.269-3.416C544.5,203.911,543.376,204.921,542.462,205.373Z" transform="translate(-534.577 -168.652)"/><path class="d" d="M636.427,247.422a.317.317,0,0,1-.183.058.337.337,0,0,1-.25-.221c-.26-.587-.106-1.328-.519-1.819a6.341,6.341,0,0,0-.962,1.665l-1.568-.481a2.337,2.337,0,0,0,.3,1.79,2.3,2.3,0,0,0-.732.5.809.809,0,0,0-.192.828,3.843,3.843,0,0,0,1.1.106,7.077,7.077,0,0,0,.125,2.059.385.385,0,0,0,.135.26.366.366,0,0,0,.375-.067,3.589,3.589,0,0,0,1.289-1.366l.577,1.4a.637.637,0,0,0,.26.346.424.424,0,0,0,.491-.173,1.332,1.332,0,0,0,.154-.548l.212-1.328a.26.26,0,0,1,.308-.25h1.645c.1-.289-.192-.558-.471-.683s-.625-.221-.76-.491c-.289-.558.452-1.337.135-1.819S636.918,247.191,636.427,247.422Z" transform="translate(-538.264 -170.306)"/><path class="d" d="M594.427,271.672a.4.4,0,0,1-.183.058.337.337,0,0,1-.25-.231c-.26-.577-.106-1.318-.52-1.809a6.207,6.207,0,0,0-.963,1.665l-1.568-.481a2.348,2.348,0,0,0,.3,1.79,2.3,2.3,0,0,0-.731.5.808.808,0,0,0-.192.828,3.843,3.843,0,0,0,1.1.106,6.978,6.978,0,0,0,.125,2.05.411.411,0,0,0,.125.27c.115.067.269,0,.385-.068a3.588,3.588,0,0,0,1.29-1.366l.577,1.4a.633.633,0,0,0,.26.346.433.433,0,0,0,.49-.173,1.183,1.183,0,0,0,.164-.52l.221-1.328a.26.26,0,0,1,.308-.25h1.645c.1-.289-.192-.568-.472-.683s-.625-.221-.76-.491c-.289-.558.452-1.338.135-1.819S594.909,271.441,594.427,271.672Z" transform="translate(-536.678 -171.222)"/><path class="b" d="M553.834,186.8a.453.453,0,0,1-.183.058c-.125,0-.2-.125-.25-.231-.27-.577-.116-1.328-.53-1.809a6.055,6.055,0,0,0-.962,1.665l-1.636-.529a2.291,2.291,0,0,0,.289,1.79,2.6,2.6,0,0,0-.731.5.818.818,0,0,0-.192.828,4.245,4.245,0,0,0,1.107.115,7.321,7.321,0,0,0,.115,2.05.366.366,0,0,0,.135.26c.115.077.26,0,.375-.058a3.654,3.654,0,0,0,1.29-1.366l.577,1.386a.6.6,0,0,0,.26.346.4.4,0,0,0,.491-.164,1.267,1.267,0,0,0,.173-.529l.212-1.318a.345.345,0,0,1,.077-.192.307.307,0,0,1,.231-.058h1.655c.087-.3-.2-.568-.481-.693s-.616-.212-.76-.491c-.289-.558.452-1.328.144-1.809S554.267,186.562,553.834,186.8Z" transform="translate(-535.142 -168.017)"/><path class="b" d="M575.417,234.63a.309.309,0,0,1-.183,0c-.115,0-.2-.116-.25-.221-.27-.577-.115-1.328-.52-1.819a6.045,6.045,0,0,0-.962,1.674l-1.559-.491a2.3,2.3,0,0,0,.3,1.79,2.451,2.451,0,0,0-.741.5.828.828,0,0,0-.193.827,4.281,4.281,0,0,0,1.107.115,7.318,7.318,0,0,0,.115,2.05.386.386,0,0,0,.135.26c.115.077.27,0,.385-.058a3.636,3.636,0,0,0,1.28-1.366l.587,1.386a.6.6,0,0,0,.26.346.423.423,0,0,0,.481-.164,1.143,1.143,0,0,0,.173-.529l.221-1.318a.336.336,0,0,1,.067-.192.385.385,0,0,1,.231-.067h1.655c.1-.3-.2-.568-.481-.693s-.616-.212-.76-.491c-.279-.558.462-1.338.144-1.819S575.9,234.389,575.417,234.63Z" transform="translate(-535.96 -169.821)"/><path class="b" d="M559.717,215.982a.4.4,0,0,1-.183.058.337.337,0,0,1-.25-.231c-.27-.577-.116-1.328-.52-1.809a5.992,5.992,0,0,0-.962,1.665l-1.559-.481a2.31,2.31,0,0,0,.3,1.79,2.457,2.457,0,0,0-.741.5.827.827,0,0,0-.192.828,3.85,3.85,0,0,0,1.107.106,7.312,7.312,0,0,0,.115,2.049.386.386,0,0,0,.135.269c.115.067.27,0,.385-.067a3.569,3.569,0,0,0,1.28-1.366l.587,1.4a.635.635,0,0,0,.26.346.414.414,0,0,0,.481-.173,1.236,1.236,0,0,0,.173-.529l.221-1.318a.309.309,0,0,1,.068-.183.327.327,0,0,1,.231-.067h1.655c.1-.289-.2-.568-.481-.683s-.616-.221-.76-.491c-.289-.558.462-1.337.144-1.819S560.2,215.742,559.717,215.982Z" transform="translate(-535.368 -169.119)"/><path class="b" d="M627.157,220.372a.449.449,0,0,1-.183.058.317.317,0,0,1-.25-.231c-.27-.577-.116-1.318-.529-1.809a6.207,6.207,0,0,0-.962,1.665l-1.559-.481a2.309,2.309,0,0,0,.289,1.79,2.418,2.418,0,0,0-.731.5.808.808,0,0,0-.192.828,3.854,3.854,0,0,0,1.107.106,7.312,7.312,0,0,0,.115,2.05.386.386,0,0,0,.135.269c.115.067.26,0,.375-.067a3.586,3.586,0,0,0,1.289-1.366l.578,1.4a.634.634,0,0,0,.26.346.423.423,0,0,0,.491-.173,1.232,1.232,0,0,0,.174-.529l.211-1.318a.26.26,0,0,1,.308-.25h1.655c.086-.289-.2-.568-.481-.683s-.616-.221-.76-.491c-.289-.558.452-1.337.144-1.819S627.638,220.132,627.157,220.372Z" transform="translate(-537.913 -169.285)"/><path class="d" d="M594.427,216.7a.317.317,0,0,1-.183.058.336.336,0,0,1-.25-.221c-.26-.577-.106-1.328-.52-1.819a6.354,6.354,0,0,0-.962,1.665l-1.569-.481a2.339,2.339,0,0,0,.3,1.79,2.3,2.3,0,0,0-.731.5.808.808,0,0,0-.192.828,3.845,3.845,0,0,0,1.1.106,7.043,7.043,0,0,0,.125,2.059.412.412,0,0,0,.125.26.385.385,0,0,0,.385-.067,3.588,3.588,0,0,0,1.29-1.366l.577,1.4a.634.634,0,0,0,.26.346.433.433,0,0,0,.49-.173,1.184,1.184,0,0,0,.164-.52l.221-1.328a.26.26,0,0,1,.308-.25h1.645c.1-.289-.192-.558-.472-.683s-.625-.221-.76-.491c-.289-.558.452-1.338.135-1.819S594.909,216.471,594.427,216.7Z" transform="translate(-536.678 -169.146)"/><path class="e" d="M584.167,221.172a.494.494,0,0,1-.193.058c-.115,0-.192-.125-.25-.231-.26-.577-.106-1.328-.52-1.809a6.221,6.221,0,0,0-.962,1.665l-1.569-.481a2.351,2.351,0,0,0,.3,1.79,2.255,2.255,0,0,0-.731.5.807.807,0,0,0-.192.827,3.843,3.843,0,0,0,1.1.106,7.315,7.315,0,0,0,.125,2.05.346.346,0,0,0,.134.26c.116.077.26,0,.375-.058a3.657,3.657,0,0,0,1.29-1.366l.577,1.386a.627.627,0,0,0,.26.356.423.423,0,0,0,.491-.173,1.431,1.431,0,0,0,.173-.529l.212-1.318a.26.26,0,0,1,.308-.25h1.655c.086-.289-.2-.568-.481-.693s-.616-.212-.76-.481c-.289-.568.452-1.338.135-1.819S584.648,220.932,584.167,221.172Z" transform="translate(-536.29 -169.315)"/><path class="d" d="M574.587,194.142a.307.307,0,0,1-.183.048c-.115,0-.2-.115-.25-.221-.26-.577-.106-1.328-.52-1.819a6.356,6.356,0,0,0-.962,1.665l-1.568-.481a2.338,2.338,0,0,0,.3,1.79,2.3,2.3,0,0,0-.731.5.808.808,0,0,0-.193.828,4.211,4.211,0,0,0,1.1.115,6.982,6.982,0,0,0,.125,2.05.412.412,0,0,0,.125.26c.115.077.269,0,.385-.067a3.561,3.561,0,0,0,1.29-1.357l.577,1.386a.635.635,0,0,0,.26.346.443.443,0,0,0,.491-.164,1.253,1.253,0,0,0,.163-.529l.221-1.318a.347.347,0,0,1,.077-.192.367.367,0,0,1,.231-.067h1.645c.1-.3-.192-.568-.471-.693s-.625-.221-.76-.491c-.289-.558.452-1.338.135-1.819S575.068,193.93,574.587,194.142Z" transform="translate(-535.929 -168.294)"/><path class="e" d="M593.447,229.422a.279.279,0,0,1-.433-.173c-.27-.577-.116-1.328-.529-1.819a6.366,6.366,0,0,0-.963,1.665l-1.559-.481a2.328,2.328,0,0,0,.289,1.79,2.528,2.528,0,0,0-.731.5.807.807,0,0,0-.193.828,3.847,3.847,0,0,0,1.107.106,7.362,7.362,0,0,0,.115,2.059.386.386,0,0,0,.135.26.366.366,0,0,0,.375-.067,3.64,3.64,0,0,0,1.29-1.357l.577,1.386a.633.633,0,0,0,.26.346.423.423,0,0,0,.49-.173,1.191,1.191,0,0,0,.144-.539l.212-1.328a.391.391,0,0,1,.077-.183.317.317,0,0,1,.231-.067H596c.1-.289-.2-.558-.481-.683s-.616-.221-.76-.491c-.289-.558.462-1.337.144-1.819S593.928,229.181,593.447,229.422Z" transform="translate(-536.641 -169.626)"/></g><g class="i" transform="translate(688.559 11.309)"><path class="b" d="M845.4,82.951c-2.338-3.175-7.169.269-4.984,3.551.568.866,1.193,1.694,1.79,2.492,7.188,9.709,10.912,21.5,14.116,33.14.789,2.887,1.549,5.918.654,8.737a54.462,54.462,0,0,0-1.492-22.815,139.183,139.183,0,0,0-8.073-21.574A19.511,19.511,0,0,0,845.4,82.951Z" transform="translate(-775.115 -57.04)"/><path class="c" d="M796.985,104.19c-4.811-.154-5.465,7.207-.635,7.592,1.27.1,2.54.125,3.762.164,14.847.4,28.867,5.773,42.387,11.547,3.31,1.424,6.736,3.021,8.727,6.062-6.081-7.053-14.1-12.221-22.613-16.021s-17.6-6.293-26.674-8.66A22.659,22.659,0,0,0,796.985,104.19Z" transform="translate(-773.347 -57.889)"/><path class="d" d="M798.452,123c-3.06.106-2.367,4.465.712,4.484.808,0,1.617,0,2.386-.058,9.363-.385,18.956,2.2,28.261,5.042,2.29.7,4.7,1.491,6.361,3.2a50.914,50.914,0,0,0-16.522-8.477,126.828,126.828,0,0,0-17.975-3.955A15.722,15.722,0,0,0,798.452,123Z" transform="translate(-773.477 -58.599)"/><path class="b" d="M863.62,205.5c.866,2.945,4.908,1.193,4.167-1.8-.193-.779-.423-1.549-.645-2.29-2.694-8.978-2.569-18.918-2.127-28.636.115-2.386.279-4.917,1.52-6.947a50.94,50.94,0,0,0-4.109,18.1,126.113,126.113,0,0,0,.625,18.408A16.194,16.194,0,0,0,863.62,205.5Z" transform="translate(-775.963 -60.216)"/><path class="d" d="M804.273,78.729c-1.838-.318-1.982,2.367-.144,2.771.481.106.962.192,1.434.269,5.638.962,11.037,3.724,16.233,6.6a8.928,8.928,0,0,1,3.4,2.723,31.194,31.194,0,0,0-8.795-7.169,78.731,78.731,0,0,0-10.229-4.648,10.7,10.7,0,0,0-1.9-.548Z" transform="translate(-773.716 -56.927)"/><path class="c" d="M774.668,152.338c-4.677,2.406-.722,9.016,4.08,6.822,1.26-.577,2.482-1.222,3.657-1.828,14.3-7.419,30.9-10.142,47.236-12.249,4-.51,8.275-.962,11.99.625-10.113-2.887-20.871-3.089-31.273-1.925s-20.515,3.849-30.532,6.572A27.153,27.153,0,0,0,774.668,152.338Z" transform="translate(-772.575 -59.359)"/><path class="b" d="M788.6,178.474c-3.368,3.137,1.925,6.842,5.408,3.849.962-.789,1.8-1.626,2.646-2.415,10.239-9.622,23.777-16.454,37.258-22.767,3.31-1.549,16.926-3.127,20.563-3.041-9.5.847-28.867,3.849-37.528,7.7a206.775,206.775,0,0,0-24.46,13.731A25.909,25.909,0,0,0,788.6,178.474Z" transform="translate(-773.139 -59.773)"/><path class="c" d="M813.556,219.853c-.962,4.484,5.437,4.551,6.63.067.308-1.174.558-2.357.8-3.483,2.964-13.731,10.209-27.068,17.715-39.914,1.848-3.156,12.153-12.2,15.194-14.193-7.332,6.1-21.6,19.562-26.471,27.693a208.021,208.021,0,0,0-12.327,25.2A25.6,25.6,0,0,0,813.556,219.853Z" transform="translate(-774.118 -60.084)"/><path class="c" d="M863.44,58.187c-2.29-4.667-8.834-.828-6.736,3.964.548,1.251,1.155,2.473,1.741,3.647,7.044,14.26,9.469,30.792,11.287,46.967.443,3.984.818,8.218-.8,11.874,2.954-9.978,3.349-20.64,2.329-30.965s-3.455-20.352-5.995-30.349A26.8,26.8,0,0,0,863.44,58.187Z" transform="translate(-775.735 -56.072)"/><path class="c" d="M825.6,66.364a.847.847,0,0,0,.395.115c.25,0,.433-.26.539-.491.568-1.241.24-2.887,1.126-3.849a13.371,13.371,0,0,1,2.136,3.58l3.358-1.039a5.014,5.014,0,0,1-.635,3.849,5.288,5.288,0,0,1,1.578,1.078,1.742,1.742,0,0,1,.414,1.78,8.526,8.526,0,0,1-2.367.231,15.466,15.466,0,0,1-.26,4.417.8.8,0,0,1-.289.558c-.241.164-.568,0-.818-.135a7.825,7.825,0,0,1-2.762-2.887l-1.28,2.867a1.329,1.329,0,0,1-.558.741.9.9,0,0,1-1.049-.356,2.725,2.725,0,0,1-.366-1.135l-.471-2.887a.676.676,0,0,0-.154-.4.723.723,0,0,0-.491-.144h-3.56c-.2-.635.423-1.222,1.03-1.482s1.328-.471,1.636-1.058c.616-1.2-.963-2.887-.308-3.907C823.274,64.651,824.563,65.854,825.6,66.364Z" transform="translate(-774.367 -56.301)"/><path class="b" d="M892.732,82.951c2.338-3.175,7.159.269,4.984,3.551-.577.866-1.193,1.694-1.79,2.492-7.188,9.709-10.912,21.5-14.126,33.14-.789,2.887-1.549,5.918-.645,8.737a54.46,54.46,0,0,1,1.492-22.815,142.735,142.735,0,0,1,8.064-21.545A20.1,20.1,0,0,1,892.732,82.951Z" transform="translate(-776.651 -57.04)"/><path class="c" d="M939.552,104.19c4.811-.154,5.465,7.207.635,7.592-1.26.1-2.54.125-3.753.164-14.857.4-28.867,5.773-42.387,11.547-3.31,1.424-6.793,3.021-8.727,6.062,6.081-7.053,14.087-12.221,22.613-16.021s17.59-6.293,26.673-8.66A22.663,22.663,0,0,1,939.552,104.19Z" transform="translate(-776.831 -57.889)"/><path class="b" d="M938.81,123c3.07.106,2.377,4.465-.7,4.484-.808,0-1.617,0-2.386-.058-9.372-.385-18.956,2.2-28.261,5.042-2.29.7-4.706,1.491-6.36,3.2a50.909,50.909,0,0,1,16.521-8.477,126.829,126.829,0,0,1,18.023-3.974A15.68,15.68,0,0,1,938.81,123Z" transform="translate(-777.427 -58.599)"/><path class="d" d="M933.68,78.729c1.838-.318,1.982,2.367.144,2.771-.481.106-.963.192-1.434.269-5.638.962-11.047,3.724-16.243,6.6a8.9,8.9,0,0,0-3.387,2.723,31.16,31.16,0,0,1,8.785-7.169,79.422,79.422,0,0,1,10.238-4.648,10.7,10.7,0,0,1,1.9-.548Z" transform="translate(-777.867 -56.927)"/><path class="d" d="M884.479,211.905c-.413,1.828-2.944.962-2.607-.962.086-.481.2-.962.308-1.424,1.28-5.571.818-11.624.163-17.522a8.852,8.852,0,0,0-1.2-4.176,31.1,31.1,0,0,1,3.224,10.864,77.061,77.061,0,0,1,.337,11.239A9.6,9.6,0,0,1,884.479,211.905Z" transform="translate(-776.674 -61.046)"/><path class="b" d="M932.168,199.11c1.443,2.444-2.1,2.281-3.657-.164-.4-.635-.78-1.28-1.135-1.924-4.388-7.457-11.056-14.838-17.782-21.968a24.665,24.665,0,0,0-5.514-4.754,87.566,87.566,0,0,1,14.434,12.346c4.311,4.513,8.121,9.218,11.855,13.914A22.7,22.7,0,0,1,932.168,199.11Z" transform="translate(-777.539 -60.385)"/><path class="d" d="M800.127,199.11c-1.443,2.444,2.1,2.281,3.647-.164.414-.635.789-1.28,1.145-1.925,4.388-7.457,11.056-14.838,17.783-21.968a24.463,24.463,0,0,1,5.513-4.754,87.184,87.184,0,0,0-14.433,12.346c-4.311,4.513-8.131,9.218-11.855,13.914A22.636,22.636,0,0,0,800.127,199.11Z" transform="translate(-773.602 -60.385)"/><path class="d" d="M848.82,211.9c.413,1.828,2.944.962,2.608-.962-.087-.481-.2-.962-.308-1.424-1.28-5.571-.818-11.624-.164-17.523a8.854,8.854,0,0,1,1.2-4.176,31.088,31.088,0,0,0-3.176,10.893,77.06,77.06,0,0,0-.337,11.239,9.6,9.6,0,0,0,.173,1.953Z" transform="translate(-775.444 -61.046)"/><path class="d" d="M918.339,97.779c1.838-.327,1.982,2.357.144,2.771-.481.106-.962.183-1.434.26-5.639.962-11.037,3.734-16.243,6.611a8.853,8.853,0,0,0-3.387,2.714,30.994,30.994,0,0,1,8.8-7.159,76.216,76.216,0,0,1,10.228-4.648A9.3,9.3,0,0,1,918.339,97.779Z" transform="translate(-777.288 -57.646)"/><path class="d" d="M900.69,60.371c1.588-.962,2.723,1.453,1.165,2.521-.4.279-.828.529-1.222.779-4.879,3-8.853,7.583-12.6,12.2a8.664,8.664,0,0,0-2.127,3.782,31.082,31.082,0,0,1,5.476-9.93,77.472,77.472,0,0,1,7.755-8.131,10.091,10.091,0,0,1,1.549-1.222Z" transform="translate(-776.853 -56.226)"/><path class="c" d="M961.453,152.338c4.676,2.406.722,9.016-4.08,6.822-1.261-.577-2.492-1.222-3.656-1.828-14.3-7.419-30.907-10.142-47.237-12.249-4-.51-8.275-.962-11.99.625,10.1-2.887,20.871-3.089,31.273-1.925s20.515,3.849,30.532,6.572A27.409,27.409,0,0,1,961.453,152.338Z" transform="translate(-777.177 -59.359)"/><path class="b" d="M947.605,178.474c3.358,3.137-1.924,6.842-5.417,3.849-.914-.789-1.8-1.626-2.637-2.415-10.248-9.622-23.787-16.454-37.258-22.767-3.31-1.549-16.936-3.127-20.563-3.041,9.5.847,28.867,3.849,37.528,7.7a206.866,206.866,0,0,1,24.47,13.731A25.941,25.941,0,0,1,947.605,178.474Z" transform="translate(-776.696 -59.773)"/><path class="c" d="M907.712,224.993c.414,4.571-5.976,3.849-6.591-.76-.163-1.2-.26-2.406-.356-3.56-1.222-13.991-6.736-28.126-12.577-41.819-1.434-3.358-10.527-13.616-13.3-15.973,6.514,6.967,18.985,22.132,22.8,30.792a207.256,207.256,0,0,1,9.065,26.539,26.487,26.487,0,0,1,.962,4.782Z" transform="translate(-776.437 -60.105)"/><path class="c" d="M912.647,66.364a.846.846,0,0,1-.395.115c-.26,0-.433-.26-.539-.491-.577-1.241-.24-2.887-1.126-3.849a13.37,13.37,0,0,0-2.136,3.58l-3.358-1.039a4.976,4.976,0,0,0,.635,3.849,5.334,5.334,0,0,0-1.588,1.078,1.75,1.75,0,0,0-.4,1.78,8.5,8.5,0,0,0,2.367.231,15.849,15.849,0,0,0,.25,4.417.838.838,0,0,0,.289.558c.25.164.577,0,.828-.135a7.823,7.823,0,0,0,2.762-2.887l1.251,2.983a1.288,1.288,0,0,0,.558.741.875.875,0,0,0,1.039-.356,2.608,2.608,0,0,0,.375-1.135l.462-2.887a.751.751,0,0,1,.163-.4.722.722,0,0,1,.491-.144h3.56c.2-.635-.433-1.222-1.039-1.482s-1.318-.472-1.626-1.058c-.616-1.2.962-2.887.3-3.907C914.985,64.651,913.7,65.854,912.647,66.364Z" transform="translate(-777.523 -56.301)"/><path class="d" d="M923.187,210.142a.845.845,0,0,1-.395.116c-.26,0-.433-.25-.539-.481-.568-1.251-.241-2.887-1.126-3.907a13.534,13.534,0,0,0-2.136,3.58l-3.358-1.039a5.013,5.013,0,0,0,.635,3.849,5.286,5.286,0,0,0-1.578,1.078,1.741,1.741,0,0,0-.414,1.78,8.537,8.537,0,0,0,2.367.241,15.4,15.4,0,0,0,.26,4.407.817.817,0,0,0,.288.568c.241.154.568,0,.818-.144a7.823,7.823,0,0,0,2.762-2.887l1.251,2.983a1.387,1.387,0,0,0,.558.751.963.963,0,0,0,1.049-.366,2.724,2.724,0,0,0,.365-1.135l.471-2.839a.52.52,0,0,1,.645-.539c1.184,0,2.377-.048,3.56,0,.2-.635-.423-1.212-1.03-1.482s-1.328-.462-1.636-1.058c-.616-1.193.963-2.887.308-3.9C925.554,208.43,924.226,209.632,923.187,210.142Z" transform="translate(-777.921 -61.728)"/><path class="c" d="M952.777,113.762a.761.761,0,0,1-.4.115c-.25,0-.423-.25-.529-.481-.577-1.241-.25-2.887-1.126-3.907a13.461,13.461,0,0,0-2.136,3.589l-3.358-1.049a4.964,4.964,0,0,0,.635,3.849,5.2,5.2,0,0,0-1.588,1.078,1.79,1.79,0,0,0-.414,1.78,8.606,8.606,0,0,0,2.377.241,15.739,15.739,0,0,0,.25,4.407.857.857,0,0,0,.289.568c.25.154.568,0,.818-.135a7.867,7.867,0,0,0,2.771-2.887l1.241,2.983a1.348,1.348,0,0,0,.558.751.9.9,0,0,0,1.049-.366,2.555,2.555,0,0,0,.375-1.135l.462-2.887a.76.76,0,0,1,.154-.394.7.7,0,0,1,.5-.144h3.55c.212-.625-.423-1.212-1.029-1.482s-1.328-.462-1.626-1.049c-.616-1.2.962-2.887.3-3.907C955.105,112.05,953.806,113.252,952.777,113.762Z" transform="translate(-779.038 -58.089)"/><path class="c" d="M834.348,224.5a1.136,1.136,0,0,1-.548.164c-.356,0-.606-.356-.75-.683-.8-1.722-.337-3.974-1.569-5.427a18.7,18.7,0,0,0-2.973,4.984l-4.686-1.443a6.994,6.994,0,0,0,.885,5.36,7.116,7.116,0,0,0-2.2,1.5,2.454,2.454,0,0,0-.577,2.473,12.027,12.027,0,0,0,3.31.337,21.636,21.636,0,0,0,.356,6.149,1.154,1.154,0,0,0,.4.779,1.106,1.106,0,0,0,1.145-.192,10.806,10.806,0,0,0,3.849-4.08l1.742,4.157a1.828,1.828,0,0,0,.779,1.039,1.251,1.251,0,0,0,1.462-.5,3.722,3.722,0,0,0,.51-1.578l.654-3.955a.963.963,0,0,1,.212-.568,1.011,1.011,0,0,1,.693-.192c1.655,0,3.31-.067,4.956,0,.289-.885-.6-1.694-1.434-2.069s-1.847-.645-2.271-1.463c-.866-1.674,1.367-4,.414-5.446C837.591,222.11,835.791,223.794,834.348,224.5Z" transform="translate(-774.433 -62.207)"/><path class="c" d="M785.138,116.576a1.174,1.174,0,0,1-.558.164c-.347,0-.6-.356-.751-.683-.789-1.732-.337-3.974-1.559-5.437a18.8,18.8,0,0,0-2.983,4.994l-4.677-1.453a6.936,6.936,0,0,0,.885,5.369,7,7,0,0,0-2.2,1.5,2.425,2.425,0,0,0-.577,2.473,11.951,11.951,0,0,0,3.31.327,21.928,21.928,0,0,0,.347,6.149,1.125,1.125,0,0,0,.4.789c.347.221.789,0,1.145-.192a10.886,10.886,0,0,0,3.849-4.08l1.741,4.157a1.925,1.925,0,0,0,.77,1.039,1.251,1.251,0,0,0,1.463-.5,3.735,3.735,0,0,0,.519-1.578l.645-3.964a1.03,1.03,0,0,1,.221-.558.962.962,0,0,1,.693-.192c1.646,0,3.3-.067,4.955-.058.279-.876-.6-1.694-1.443-2.059s-1.848-.654-2.271-1.472c-.856-1.674,1.366-3.993.423-5.437C788.38,114.19,786.581,115.855,785.138,116.576Z" transform="translate(-772.575 -58.132)"/><path class="d" d="M934.739,183.516a.529.529,0,0,1-.289.087c-.192,0-.317-.193-.4-.356-.424-.962-.173-2.117-.828-2.887a9.719,9.719,0,0,0-1.578,2.646l-2.492-.77a3.656,3.656,0,0,0,.471,2.887,3.97,3.97,0,0,0-1.174.8,1.317,1.317,0,0,0-.3,1.318,6.74,6.74,0,0,0,1.751.173,11.245,11.245,0,0,0,.192,3.262.607.607,0,0,0,.211.423c.183.115.423,0,.606-.106a5.77,5.77,0,0,0,2.04-2.165l.962,2.2a1.031,1.031,0,0,0,.414.558.674.674,0,0,0,.78-.269,1.932,1.932,0,0,0,.269-.837l.346-2.107a.385.385,0,0,1,.481-.394h2.636c.154-.471-.318-.9-.76-1.1a2.317,2.317,0,0,1-1.212-.779c-.452-.895.731-2.127.221-2.887S935.47,183.141,934.739,183.516Z" transform="translate(-778.446 -60.765)"/><path class="d" d="M867.849,222.116a.569.569,0,0,1-.3.087c-.183,0-.318-.192-.395-.366-.424-.914-.183-2.107-.827-2.887a9.935,9.935,0,0,0-1.588,2.656l-2.483-.77a3.668,3.668,0,0,0,.471,2.887,3.791,3.791,0,0,0-1.174.8,1.3,1.3,0,0,0-.308,1.318,6.737,6.737,0,0,0,1.761.173,11.538,11.538,0,0,0,.183,3.262.6.6,0,0,0,.212.414c.183.125.423,0,.606-.1a5.774,5.774,0,0,0,2.05-2.165l.962,2.2a1.027,1.027,0,0,0,.414.558.673.673,0,0,0,.779-.269,1.922,1.922,0,0,0,.27-.837l.347-2.107a.54.54,0,0,1,.115-.3.606.606,0,0,1,.366-.106h2.636c.144-.472-.318-.9-.77-1.1a2.219,2.219,0,0,1-1.2-.779c-.462-.895.722-2.127.222-2.887S868.618,221.731,867.849,222.116Z" transform="translate(-775.92 -62.222)"/><path class="b" d="M803.149,87.016a.557.557,0,0,1-.289.087.519.519,0,0,1-.4-.356c-.423-.962-.183-2.117-.828-2.887a9.87,9.87,0,0,0-1.588,2.646l-2.483-.77a3.7,3.7,0,0,0,.472,2.887,3.76,3.76,0,0,0-1.174.789,1.309,1.309,0,0,0-.308,1.318,6.054,6.054,0,0,0,1.761.173,11.669,11.669,0,0,0,.183,3.272.607.607,0,0,0,.221.414c.183.115.414,0,.606-.1a5.773,5.773,0,0,0,2.04-2.175l.962,2.213a.963.963,0,0,0,.414.548.674.674,0,0,0,.779-.269,1.924,1.924,0,0,0,.27-.837l.347-2.1a.537.537,0,0,1,.115-.3.5.5,0,0,1,.366-.106h2.636c.145-.462-.317-.895-.77-1.1s-.962-.346-1.2-.779c-.462-.885.732-2.127.221-2.887S803.918,86.641,803.149,87.016Z" transform="translate(-773.477 -57.122)"/><path class="b" d="M837.579,163.146a.51.51,0,0,1-.289.087c-.193,0-.318-.183-.395-.356-.423-.962-.183-2.117-.837-2.887a10.1,10.1,0,0,0-1.578,2.646l-2.492-.77a3.743,3.743,0,0,0,.472,2.887,3.844,3.844,0,0,0-1.164.8,1.3,1.3,0,0,0-.308,1.318,6.336,6.336,0,0,0,1.751.173,11.672,11.672,0,0,0,.193,3.272.6.6,0,0,0,.212.414c.183.115.423,0,.606-.106a5.773,5.773,0,0,0,2.05-2.165l.962,2.2a.961.961,0,0,0,.413.558.655.655,0,0,0,.77-.269,1.932,1.932,0,0,0,.279-.837l.346-2.1a.461.461,0,0,1,.125-.317.471.471,0,0,1,.366-.106h2.627c.154-.462-.308-.9-.76-1.1a2.218,2.218,0,0,1-1.2-.779c-.462-.885.722-2.126.221-2.887S838.349,162.771,837.579,163.146Z" transform="translate(-774.778 -59.996)"/><path class="b" d="M812.589,133.476a.716.716,0,0,1-.289.087.539.539,0,0,1-.394-.366c-.424-.914-.183-2.107-.837-2.887a9.882,9.882,0,0,0-1.578,2.656L807,132.2a3.762,3.762,0,0,0,.471,2.887,3.762,3.762,0,0,0-1.174.789,1.319,1.319,0,0,0-.3,1.318,5.959,5.959,0,0,0,1.751.173,11.676,11.676,0,0,0,.192,3.272.6.6,0,0,0,.212.414c.183.116.424,0,.606-.1a5.852,5.852,0,0,0,2.05-2.175l.962,2.213a.964.964,0,0,0,.4.549.673.673,0,0,0,.779-.269,1.922,1.922,0,0,0,.279-.837l.337-2.1a.541.541,0,0,1,.116-.3.509.509,0,0,1,.375-.106h2.627c.154-.462-.318-.895-.76-1.1s-.962-.346-1.213-.779c-.452-.885.731-2.127.231-2.887S813.359,133.091,812.589,133.476Z" transform="translate(-773.834 -58.875)"/><path class="b" d="M919.929,140.456a.51.51,0,0,1-.289.087c-.192,0-.318-.183-.395-.356-.423-.962-.183-2.117-.837-2.887a9.846,9.846,0,0,0-1.578,2.646l-2.492-.77a3.743,3.743,0,0,0,.471,2.887,3.967,3.967,0,0,0-1.174.8,1.318,1.318,0,0,0-.3,1.318,6.3,6.3,0,0,0,1.751.173,11.658,11.658,0,0,0,.192,3.272.6.6,0,0,0,.212.414c.183.115.424,0,.606-.106a5.772,5.772,0,0,0,2.05-2.165l.962,2.2a.962.962,0,0,0,.414.558.664.664,0,0,0,.77-.269,1.924,1.924,0,0,0,.279-.837l.346-2.1a.385.385,0,0,1,.481-.4h2.627c.154-.462-.318-.9-.76-1.1a2.317,2.317,0,0,1-1.212-.779c-.453-.885.731-2.127.231-2.887S920.708,140.081,919.929,140.456Z" transform="translate(-777.886 -59.139)"/><path class="d" d="M867.849,134.616a.568.568,0,0,1-.3.087c-.183,0-.317-.183-.394-.356-.423-.962-.183-2.117-.827-2.887a9.865,9.865,0,0,0-1.588,2.646l-2.483-.77a3.7,3.7,0,0,0,.472,2.887,3.762,3.762,0,0,0-1.174.789,1.308,1.308,0,0,0-.308,1.318,6.023,6.023,0,0,0,1.761.173,11.656,11.656,0,0,0,.183,3.272.644.644,0,0,0,.212.414c.183.116.424,0,.606-.1a5.777,5.777,0,0,0,2.05-2.175l.962,2.213a.963.963,0,0,0,.414.548.673.673,0,0,0,.779-.269,1.924,1.924,0,0,0,.27-.837l.347-2.1a.538.538,0,0,1,.115-.3.5.5,0,0,1,.366-.106h2.636c.144-.462-.318-.895-.77-1.1s-.962-.346-1.2-.779c-.462-.885.722-2.127.221-2.887S868.618,134.241,867.849,134.616Z" transform="translate(-775.92 -58.919)"/><path class="e" d="M851.5,141.736a.723.723,0,0,1-.289.087.539.539,0,0,1-.395-.366c-.423-.962-.183-2.107-.837-2.887a9.758,9.758,0,0,0-1.578,2.656l-2.492-.78a3.772,3.772,0,0,0,.471,2.887,3.767,3.767,0,0,0-1.174.789,1.318,1.318,0,0,0-.3,1.318,5.958,5.958,0,0,0,1.751.173,11.649,11.649,0,0,0,.192,3.272.6.6,0,0,0,.212.414c.183.115.423,0,.606-.1a5.852,5.852,0,0,0,2.049-2.175l.963,2.213a.962.962,0,0,0,.413.548.664.664,0,0,0,.77-.269,1.928,1.928,0,0,0,.279-.837l.347-2.1a.526.526,0,0,1,.106-.3.51.51,0,0,1,.375-.106H855.6c.154-.462-.318-.895-.76-1.1s-.962-.346-1.212-.779c-.452-.885.731-2.127.231-2.887S852.269,141.351,851.5,141.736Z" transform="translate(-775.303 -59.187)"/><path class="d" d="M836.269,98.7a.569.569,0,0,1-.3.087c-.183,0-.318-.183-.394-.356-.423-.962-.183-2.117-.828-2.887a9.87,9.87,0,0,0-1.588,2.646l-2.483-.77a3.656,3.656,0,0,0,.472,2.887,3.968,3.968,0,0,0-1.174.8,1.3,1.3,0,0,0-.308,1.318,6.406,6.406,0,0,0,1.761.173,11.684,11.684,0,0,0,.183,3.272.645.645,0,0,0,.212.414c.183.115.423,0,.606-.106a5.677,5.677,0,0,0,2.05-2.165l.962,2.2a1.032,1.032,0,0,0,.414.558.673.673,0,0,0,.779-.269,1.917,1.917,0,0,0,.27-.837l.347-2.1a.517.517,0,0,1,.115-.3.5.5,0,0,1,.365-.106h2.636c.145-.471-.317-.9-.77-1.1a2.217,2.217,0,0,1-1.2-.779c-.462-.895.722-2.127.221-2.887S837.038,98.321,836.269,98.7Z" transform="translate(-774.728 -57.562)"/><path class="e" d="M866.279,154.876a.818.818,0,0,1-.3.087c-.183,0-.318-.192-.395-.366-.423-.914-.183-2.107-.828-2.887a9.932,9.932,0,0,0-1.588,2.656l-2.482-.77a3.674,3.674,0,0,0,.471,2.887,3.763,3.763,0,0,0-1.174.789,1.308,1.308,0,0,0-.308,1.318,6.049,6.049,0,0,0,1.761.173,11.666,11.666,0,0,0,.183,3.272.645.645,0,0,0,.211.414c.183.116.424,0,.616-.1a5.819,5.819,0,0,0,2.04-2.175l.962,2.213a.963.963,0,0,0,.414.548.674.674,0,0,0,.78-.269,1.924,1.924,0,0,0,.269-.837l.347-2.1a.534.534,0,0,1,.116-.3.5.5,0,0,1,.365-.106h2.637c.144-.462-.318-.895-.77-1.1s-.962-.346-1.2-.779c-.462-.885.722-2.127.221-2.887S867.048,154.472,866.279,154.876Z" transform="translate(-775.861 -59.683)"/></g><path class="f" d="M905.1,708.562a23.756,23.756,0,0,0,3.147-12.066c0-10.9-6.736-19.736-15.078-19.736S878.09,685.593,878.09,696.5a23.758,23.758,0,0,0,3.146,12.066,24.71,24.71,0,0,0,0,24.133,24.709,24.709,0,0,0,0,24.133,24.71,24.71,0,0,0,0,24.133,23.786,23.786,0,0,0-3.147,12.067c0,10.9,6.736,19.745,15.078,19.745s15.078-8.843,15.078-19.745a23.788,23.788,0,0,0-3.146-12.067,24.713,24.713,0,0,0,0-24.133,24.712,24.712,0,0,0,0-24.133A24.713,24.713,0,0,0,905.1,708.562Z" transform="translate(-88 -68.197)"/><ellipse class="f" cx="15.078" cy="19.745" rx="15.078" ry="19.745" transform="translate(790.091 584.43)"/><ellipse class="f" cx="15.078" cy="19.745" rx="15.078" ry="19.745" transform="translate(790.091 560.297)"/><path class="c" d="M834.474,470.906a72.1,72.1,0,0,1-5.61-8.266l39.625-6.514-42.859.318a72.38,72.38,0,0,1-1.376-57.225l57.494,29.83-53.03-39a72.255,72.255,0,1,1,119.319,80.828,72.584,72.584,0,0,1,8.237,13.173l-51.432,26.789,54.848-18.408a72.322,72.322,0,0,1-11.643,67.848,72.245,72.245,0,1,1-113.545,0,72.285,72.285,0,0,1,0-89.335Z" transform="translate(-85.769 -56.005)"/><path class="g" d="M963.5,521.878a71.965,71.965,0,0,1-15.454,44.667,72.245,72.245,0,1,1-113.545,0C824.774,554.248,963.5,513.766,963.5,521.878Z" transform="translate(-85.77 -62.31)"/><path class="f" d="M331.267,715.788a25.183,25.183,0,0,0,3.339-12.779c0-11.547-7.15-20.909-15.973-20.909s-15.973,9.363-15.973,20.909A25.18,25.18,0,0,0,306,715.788a26.125,26.125,0,0,0,0,25.557,26.126,26.126,0,0,0,0,25.558,26.106,26.106,0,0,0,0,25.547,25.239,25.239,0,0,0-3.339,12.779c0,11.547,7.149,20.909,15.973,20.909s15.973-9.363,15.973-20.909a25.238,25.238,0,0,0-3.339-12.779,26.107,26.107,0,0,0,0-25.548,26.124,26.124,0,0,0,0-25.557A26.125,26.125,0,0,0,331.267,715.788Z" transform="translate(-66.275 -68.399)"/><ellipse class="f" cx="15.973" cy="20.91" rx="15.973" ry="20.91" transform="translate(236.385 588.154)"/><ellipse class="f" cx="15.973" cy="20.91" rx="15.973" ry="20.91" transform="translate(236.385 562.596)"/><path class="c" d="M376.04,464.146a77.8,77.8,0,0,0,5.947-8.756l-41.935-6.909,45.389.337A76.634,76.634,0,0,0,386.9,388.2l-60.929,31.59,56.157-41.28a76.508,76.508,0,1,0-126.362,85.64,76.087,76.087,0,0,0-8.718,13.953l54.511,28.28-58.091-19.5a76.585,76.585,0,0,0,12.336,71.841,76.508,76.508,0,1,0,120.281,0,76.528,76.528,0,0,0,0-94.6Z" transform="translate(-63.888 -55.499)"/><path class="g" d="M239.4,518.1a76.21,76.21,0,0,0,16.358,47.295,76.508,76.508,0,1,0,120.281,0C386.286,552.371,239.4,509.5,239.4,518.1Z" transform="translate(-63.886 -62.165)"/><ellipse class="f" cx="522.5" cy="25.528" rx="522.5" ry="25.528" transform="translate(0 729.681)"/><path class="j" d="M634.831,726.879a1.684,1.684,0,0,0-1.155,1.02h-.183l-.712-.115s-3.734-.308-4.426-.26a1.387,1.387,0,0,1-1.135-.645l-2.781-2.348-.211-.183.491-.173s-7.458-9.257-9.064-9.44-4.263-2.338-4.291-2.367v-.144c-.058-.308-.1-.626-.135-.963l.394.241h0v-.327h0A6.006,6.006,0,0,1,612.738,708c.779-1.078,1.925-1.924,2.386-3.166a4.626,4.626,0,0,0,.241-1.665,5.5,5.5,0,0,0-.77-2.887,3.647,3.647,0,0,0-2.444-1.684,2.038,2.038,0,0,1-.789-.106c-1.559-.366-2.127-2.454-3.637-2.964a3.089,3.089,0,0,0-2.165.221c-.683.289-1.29.712-1.925,1.039a12.53,12.53,0,0,0-2.021,1.03l-.192.164h0l-.125.115h0a4.19,4.19,0,0,0-.645.847v.048a.121.121,0,0,1-.048.1v.635a.3.3,0,0,1,0,.077v.106a.186.186,0,0,0,0,.077.35.35,0,0,0,0,.106v.183a.126.126,0,0,1,0,.058v.163h0a3.366,3.366,0,0,0,.722,1.02l-.087.086a6.562,6.562,0,0,0-2.021,4.744,6.737,6.737,0,0,0,.106,1.174,6.155,6.155,0,0,0-1.1-.664,9.627,9.627,0,0,0-4.1-.962,28.476,28.476,0,0,1-5.571-.895,2.335,2.335,0,0,1,.182.5l-.462-.26a13.629,13.629,0,0,0-4.349-1.462s-.962.135-1.087-1.925a8.719,8.719,0,0,0-.346-1.867,32.487,32.487,0,0,1-1.549-5.658l-.308-2.993s1.453-7.765.577-11.056a2.3,2.3,0,0,0-.808-2.675c-3.656-2.694-7.352,7.8-7.352,7.8l-1.376,1.328a2.942,2.942,0,0,0-1.164-.443,6.5,6.5,0,0,0-1.251,2.819c-.269,1.1-2.136,2.887-3.849,4.4-1.193,1.049-2.348,2.136-3.493,3.224-.857.808-2.752,1.924-6.89,2.617l-1.78.289a5.5,5.5,0,0,0,.212-1.5,5.619,5.619,0,0,0-4.417-5.465,1.429,1.429,0,0,0,0-.4,1.664,1.664,0,0,0-.423-.76,8.04,8.04,0,0,0-3.108-2.694,4.053,4.053,0,0,0-1.684-.269h-.414a4.3,4.3,0,0,0-3.146,1.636c-.462.626-.741,1.357-1.145,2.021a9.086,9.086,0,0,1-3.137,2.886c-.741.443-1.53.837-2.232,1.347a8.381,8.381,0,0,0-3.1,8.362c.289,1.347.885,2.675.722,4.041a6.956,6.956,0,0,1-1.28,2.887,9.246,9.246,0,0,0-1.424,2.887,2.83,2.83,0,0,0,.885,2.887,6.9,6.9,0,0,1,.962.654,3.186,3.186,0,0,1,.453.712,7.093,7.093,0,0,0,4.4,3.416,2.887,2.887,0,0,0,.9.1h.1a1.51,1.51,0,0,0,1.636-.751,1.591,1.591,0,0,1,.154-.4.475.475,0,0,1,.27-.183,2.185,2.185,0,0,1,.644.241,8.171,8.171,0,0,0,3.108.875,3.43,3.43,0,0,0,.549,0,2.419,2.419,0,0,0,1.116-.154,2.347,2.347,0,0,0,.856-.741l.144-.192a15.624,15.624,0,0,1-1.4,4.349,7.945,7.945,0,0,0-1.049,3.8,3.773,3.773,0,0,0,.423,2l.106-.212a15.255,15.255,0,0,0,2.088,2.886,20.33,20.33,0,0,1-.2,4.513,9.333,9.333,0,0,0,3.57,10.277l1.184,2.6-4.879.346c-.491-.067-6.88-.962-6.909.318s.962,13.952,4.272,13.1c3.089-.8,2.069-4.494,1.925-4.985h-.01l2.464-2.338a1.069,1.069,0,0,0-.183-.808h0l5.956.269,1.4,3.06s2.377,3.618.452,6.659-3.926,7.8-4.243,10.681a11.76,11.76,0,0,1-2.637,5.446c-1.116.385-5.4,2.059-3.7,4.609,1.925,2.887,8.323,8.468,10.893,8.276s1.54-2.059,1.54-2.059l-2.146-2.1a51.712,51.712,0,0,1-.231-5.773,1.328,1.328,0,0,0-.962-1.366c.2-1.453.712-4.186,1.809-5.706,1.549-2.127,6.5-11.47,6.5-11.47s1.568-1.4,1.222-5.552c-.144-1.674-.221-3.146-.269-4.311l5.6.251s6-.6,1.925-7.034-12.75-12.75-12.75-12.75l-.077-3.984.625.154a1.311,1.311,0,0,0-.1-.4h.1a85.327,85.327,0,0,1-1.587-9.651l.356.164c3.724,4.311,6.235.664,6.235.664s7.871-11.056,7.1-10.585a.661.661,0,0,1-.519,0l.567-1.809s2.329-3.55-1.049-5.552c-2.752-1.626-2.685,3.483-2.559,5.418l-.135-.125s-2.636,3.964-4.051,6.187-2.6.76-2.6.76l-1.79-2.011a7.156,7.156,0,0,0,.424-2.521,4.254,4.254,0,0,0-1.213-3.262,5.7,5.7,0,0,1-1.8-3.782,3.973,3.973,0,0,1,.356-1.549l9.286-4.917s1.925,0,4.59-4.022a69.325,69.325,0,0,1,5.629-7.419l-.154-.211.154-.173s-.106-.154-.3-.395l1.434-1.655a21.736,21.736,0,0,0,0,2.242l.731,2.511.423,13.943s-.452,1.337,2.444,2.665c2.444,1.126,6.322,3.031,7.448,3.58a1.7,1.7,0,0,1-.067.163h.337c5.648-.51,5.456,5.129,5.456,5.129s.385,11.48-1.347,15.473a22.8,22.8,0,0,0-1.482,8.939s.173-.837,1.145.26l-.067.308c-.548,2.771-1.693,8.661-1.924,11.037a38.714,38.714,0,0,1-1.251,6.437l-.577,10.585,3.618.173v.375a1.155,1.155,0,0,1-.606.962c-1.241.674-4.157,3.031-3.926,10.286l-.125,1.193A14.787,14.787,0,0,1,584,789.262a3.558,3.558,0,0,0-.221.423.336.336,0,0,1,.1-.2s-1.877.385-1.492,5.456.962,5.966,1.732,6.024,4.532.962,4.34-.885-.385-6.024-.125-6.659,1.27-2.338.3-2.752h0a14.365,14.365,0,0,0,.4-3.55,23.266,23.266,0,0,1,3.243-4.09c1.347-1.116,2.078-3,2.569-5.427,0-.154,3.984-2.79,3.406-4.975q-.144-.558-.231-.962a.729.729,0,0,0-.067-.385h.077l.8-4.811v4.7l.481.057v.385l-.2,4.494a7.289,7.289,0,0,1-.577,2.55,25.016,25.016,0,0,0-1.992,11.345l-.048,4.321c-.135,0-2.1.491-1.722,5.388.385,5.071.962,5.956,1.732,6.024s4.532.962,4.34-.885-.385-6.024-.135-6.659.7-2.309-.269-2.723a3.6,3.6,0,0,1,.4-1.627c.423-.722,1.838-4.147,2.886-6.784a24.39,24.39,0,0,0,1.79-8.381v-.1a7.891,7.891,0,0,1,.616-2.819,19.952,19.952,0,0,0,1.03-3.108.689.689,0,0,1,.068-.366l.914.116,3.156-13.626s.857-7.39.443-10.729a.856.856,0,0,0-.058-.385h.193s.645-1.645.452-8.66,1.28-9.257,1.28-9.257c.8-2.531,1.684-3.378,2.194-3.666h0a1.051,1.051,0,0,1,.443-.145l2.386,2.733h0l.443.5h0l.2.221a1.99,1.99,0,0,1,0-.337c1.27.741,4.215,2.463,5.966,3.7,2.29,1.617,2.887,1.434,4.917,1.26a13.244,13.244,0,0,0,3.955-1.3h.1a4.827,4.827,0,0,0,.962.376s3.233,2.733,3.541-2.261S634.831,726.879,634.831,726.879ZM551.02,785.028a4.922,4.922,0,0,1-.962-.395Zm-5.052-54.059v.712h0A5.822,5.822,0,0,1,545.968,730.969Zm50.508,63.3v.279C596.418,794.4,596.389,794.4,596.476,794.265Z" transform="translate(-74.804 -68.212)"/><rect class="c" width="5.485" height="5.764" transform="translate(526.503 642.973)"/><path class="k" d="M596.8,781.389c-.481,2.405-1.193,4.282-2.521,5.389a23.235,23.235,0,0,0-3.185,4.06c0,3.945-1.068,5.138-1.068,5.138l-1.068.289h-2.646a12.347,12.347,0,0,1-.568-2.117,2.414,2.414,0,0,1,.414-1.174,14.851,14.851,0,0,0,1.732-5.6L588,786.21c-.221-7.217,2.636-9.565,3.849-10.229a1.174,1.174,0,0,0,.6-.962h0l.212-2.059,7.121.347a5.773,5.773,0,0,0,.125,2.078,4.577,4.577,0,0,0,.221,1.01C600.7,778.618,596.825,781.226,596.8,781.389Z" transform="translate(-76.962 -71.829)"/><path class="k" d="M609.368,776.436a18.034,18.034,0,0,1-.963,3.079,8.083,8.083,0,0,0-.606,2.81v.1a24.542,24.542,0,0,1-1.751,8.333c-1.049,2.617-2.434,6.024-2.887,6.736a5.54,5.54,0,0,0-.279,3.214l-4.013-.279.068-6.736a25.072,25.072,0,0,1,1.924-11.277,7.425,7.425,0,0,0,.558-2.531l.2-4.475.058-1.318s7.092-1.01,7.7.6a3.52,3.52,0,0,1-.01,1.751Z" transform="translate(-77.458 -71.86)"/><path class="l" d="M596.8,781.389c-.481,2.405-1.193,4.282-2.521,5.389a23.235,23.235,0,0,0-3.185,4.06c0,3.945-1.068,5.138-1.068,5.138l-1.068.289h-2.646a12.347,12.347,0,0,1-.568-2.117,2.414,2.414,0,0,1,.414-1.174,14.851,14.851,0,0,0,1.732-5.6L588,786.21c-.221-7.217,2.636-9.565,3.849-10.229a1.174,1.174,0,0,0,.6-.962h0l.212-2.059,7.121.347a5.773,5.773,0,0,0,.125,2.078,4.577,4.577,0,0,0,.221,1.01C600.7,778.618,596.825,781.226,596.8,781.389Z" transform="translate(-76.962 -71.829)"/><path class="l" d="M609.368,776.436a18.034,18.034,0,0,1-.963,3.079,8.083,8.083,0,0,0-.606,2.81v.1a24.542,24.542,0,0,1-1.751,8.333c-1.049,2.617-2.434,6.024-2.887,6.736a5.54,5.54,0,0,0-.279,3.214l-4.013-.279.068-6.736a25.072,25.072,0,0,1,1.924-11.277,7.425,7.425,0,0,0,.558-2.531l.2-4.475.058-1.318s7.092-1.01,7.7.6a3.52,3.52,0,0,1-.01,1.751Z" transform="translate(-77.458 -71.86)"/><path class="g" d="M600.177,775.435l-7.458-.365.212-2.059,7.121.347A5.774,5.774,0,0,0,600.177,775.435Z" transform="translate(-77.226 -71.831)"/><path class="g" d="M609.478,776.435l-7.7-1.039.057-1.318s7.092-1.01,7.7.6A3.529,3.529,0,0,1,609.478,776.435Z" transform="translate(-77.568 -71.86)"/><path class="m" d="M613.059,761.517l-3.089,13.548-9.141-1.231v-4.657l-.789,4.811-10.96-.539.568-10.5a38.765,38.765,0,0,0,1.222-6.39c.211-2.377,1.337-8.227,1.924-10.969.173-.962.289-1.482.289-1.482s18.783,3.907,20.015,5.321a3.039,3.039,0,0,1,.433,1.443C613.906,754.175,613.059,761.517,613.059,761.517Z" transform="translate(-77.088 -70.74)"/><path class="g" d="M591.21,763s7.39-3.849,9.189-3.06Z" transform="translate(-77.168 -71.333)"/><path class="g" d="M595.4,750s6.139,4.667,6.332,5.927Z" transform="translate(-77.327 -70.962)"/><path class="g" d="M593.66,766.65s4.446-.183,5.86.962Z" transform="translate(-77.261 -71.591)"/><path class="g" d="M601.974,761.47s2.107,6.909,1.193,8.8-1.857-.443-1.857-.443Z" transform="translate(-77.55 -71.395)"/><path class="m" d="M598.832,798.92s-2.088.318-1.7,5.359.963,5.918,1.7,5.986,4.436.962,4.253-.885-.385-5.985-.125-6.611.683-2.3-.27-2.714l-.212.962s-2.011-1.857-3.214-.5a5.014,5.014,0,0,0-.241-.963C598.927,799.257,598.639,799.1,598.832,798.92Z" transform="translate(-77.39 -72.809)"/><path class="k" d="M637.811,734.309s-.472.26-1.174.6a13.059,13.059,0,0,1-3.849,1.29c-1.925.163-2.579.356-4.812-1.251-1.722-1.232-4.609-2.954-5.86-3.686l-.548-.327h-.058l1.039-2.887,3.685-1.924.962.789,2.723,2.338a1.346,1.346,0,0,0,1.106.635c.683-.048,4.349.26,4.349.26l.693.115,1.463.24Z" transform="translate(-78.312 -70.061)"/><path class="g" d="M638.35,734.468s-.472.26-1.174.6c-.741-.375-1.655-1.087-1.3-2.252s.4-1.876.664-2.463l1.463.241Z" transform="translate(-78.852 -70.22)"/><path class="k" d="M637.866,729.315s4.109-1.184,3.8,3.781-3.474,2.242-3.474,2.242-2.694-.7-2.127-2.569S636.471,729.767,637.866,729.315Z" transform="translate(-78.859 -70.177)"/><path class="k" d="M593.021,711.377l-4.282,1.8h-.115l-.269-.134c-1.107-.548-4.907-2.435-7.3-3.56-2.887-1.318-2.4-2.646-2.4-2.646l-.414-13.866-.722-2.482s-.519-8.449,3.589-10.585,1.453,12.221,1.453,12.221l.3,2.983a33.169,33.169,0,0,0,1.126,5.629,8.185,8.185,0,0,1,.337,1.847c.125,2.021,1.068,1.924,1.068,1.924a13.154,13.154,0,0,1,4.263,1.443,11.635,11.635,0,0,1,1.414.9Z" transform="translate(-76.651 -68.308)"/><path class="l" d="M609.337,719.124l-3.656-.385a13.781,13.781,0,0,0,1.549-3.166,5.324,5.324,0,0,0,.164-.645,2.2,2.2,0,0,0-.2-1.607c-1.068-1.578,6.37-3.782,6.37-3.782a18.243,18.243,0,0,0-.087,2.627,15.1,15.1,0,0,0,.192,1.809,4.544,4.544,0,0,0,1.53,2.973C617.535,718.556,609.337,719.124,609.337,719.124Z" transform="translate(-77.715 -69.435)"/><path class="g" d="M609.337,719.3l-3.656-.385a13.778,13.778,0,0,0,1.549-3.166c.423.606.568.587,1.164.712,0,0,3.686.548,5.273-2.309a4.543,4.543,0,0,0,1.53,2.973C617.535,718.73,609.337,719.3,609.337,719.3Z" transform="translate(-77.715 -69.609)"/><path class="g" d="M622.078,731.258a2.015,2.015,0,0,0,0,.337l-.568-.664h0l1.039-2.887,3.685-1.924.962.789C625.831,727.332,622.145,728.891,622.078,731.258Z" transform="translate(-78.313 -70.061)"/><path class="g" d="M593.444,712.406l-4.282,1.8h-.443l.058-.163c.356-.866,2.021-5.1,1.3-7.1a11.652,11.652,0,0,1,1.414.9Z" transform="translate(-77.074 -69.337)"/><path class="g" d="M613.636,750.854c-1.665-.154-18.35-1.693-19.909-4.147a8.188,8.188,0,0,0-.828-1.136c.173-.962.289-1.482.289-1.482S611.972,748,613.2,749.411A3.044,3.044,0,0,1,613.636,750.854Z" transform="translate(-77.232 -70.739)"/><path class="n" d="M607.765,716.362s3.724.558,5.3-2.348c0,0,2.637,2.165,4.215,2.358s8.882,9.382,8.882,9.382-5.86,1.925-5.485,4.917l-2.81-3.214s-1.386-.058-2.579,3.782c0,0-1.453,2.2-1.26,9.2s-.443,8.661-.443,8.661-18.408-1.578-20.044-4.167-1.924-1.318-1.924-1.318a22.986,22.986,0,0,1,1.443-8.891c1.7-3.964,1.328-15.4,1.328-15.4s.183-5.61-5.36-5.1c0,0,2.329-5.427,1.261-7.505a27.5,27.5,0,0,0,5.466.895,9.413,9.413,0,0,1,4.022.963,4.471,4.471,0,0,1,1.664,1.26,2.454,2.454,0,0,0,2.887.818,28.866,28.866,0,0,0,1.645,4.041l.222.4c.115.183.221.366.337.529A1.337,1.337,0,0,0,607.765,716.362Z" transform="translate(-77.086 -69.328)"/><path class="g" d="M613.529,712.168a6.469,6.469,0,0,1-.664.8,6.588,6.588,0,0,1-4.734,1.992h-.683a2.2,2.2,0,0,0-.2-1.607c-1.068-1.578,6.37-3.781,6.37-3.781A18.172,18.172,0,0,0,613.529,712.168Z" transform="translate(-77.77 -69.436)"/><path class="k" d="M614.531,707.84a6.572,6.572,0,1,1-1.925-4.7A6.62,6.62,0,0,1,614.531,707.84Z" transform="translate(-77.549 -69.121)"/><path class="g" d="M618.45,723.82l.135,4.426s1.982-1.588,2.04-3.108S618.45,723.82,618.45,723.82Z" transform="translate(-78.197 -69.974)"/><path class="g" d="M601.88,728.42s5.206,7.14,8.227,7.862S603.015,730.739,601.88,728.42Z" transform="translate(-77.571 -70.147)"/><path class="g" d="M607.61,729.19s2.887,3.272,4.984,3.685Z" transform="translate(-77.788 -70.177)"/><path class="g" d="M597,737.77s5.292,5.2,8.323,5.514Z" transform="translate(-77.387 -70.501)"/><path class="g" d="M614.608,707.84a6.574,6.574,0,0,1-1.924,4.619l-.731-.443a2.07,2.07,0,0,1-.7-.616,2.451,2.451,0,0,1-.154-1.376,3.223,3.223,0,0,0-.962-2.675c-1.26-.962-3.272-.453-4.532-1.434a4.8,4.8,0,0,1-.808-.895l-1.193-1.6-.25-.308a6.62,6.62,0,0,1,11.258,4.724Z" transform="translate(-77.627 -69.121)"/><path class="m" d="M603.95,699.206a11.98,11.98,0,0,1,1.973-1.03c.654-.327,1.251-.751,1.925-1.039a2.954,2.954,0,0,1,2.117-.212c1.482.51,2.04,2.579,3.57,2.945.25.058.52.058.779.106a3.589,3.589,0,0,1,2.4,1.665,5.67,5.67,0,0,1,.76,2.887,4.814,4.814,0,0,1-.24,1.655c-.453,1.232-1.578,2.079-2.348,3.147a6,6,0,0,0-1.1,3.483l-1.848-1.145a2.072,2.072,0,0,1-.7-.616,2.435,2.435,0,0,1-.154-1.366,3.243,3.243,0,0,0-.962-2.685c-1.26-.962-3.272-.443-4.532-1.434a4.23,4.23,0,0,1-.808-.895c-.395-.53-.8-1.059-1.193-1.6a4.554,4.554,0,0,1-.866-1.2C602.448,700.958,603.3,699.707,603.95,699.206Z" transform="translate(-77.601 -68.955)"/><path class="g" d="M612.179,711.526a1.987,1.987,0,0,1-.712-.606,2.455,2.455,0,0,1-.154-1.376,3.2,3.2,0,0,0-.962-2.675c-1.251-.962-3.262-.452-4.532-1.434a4.812,4.812,0,0,1-.808-.895c-.395-.529-.789-1.068-1.193-1.6a4.446,4.446,0,0,1-.866-1.213,2.751,2.751,0,0,1,.876-2.28,2.886,2.886,0,0,0-1.078,2.492,4.55,4.55,0,0,0,.866,1.2c.395.539.8,1.068,1.193,1.6a4.238,4.238,0,0,0,.808.9c1.261.962,3.272.433,4.532,1.434a3.242,3.242,0,0,1,.962,2.684,2.438,2.438,0,0,0,.154,1.366,2.066,2.066,0,0,0,.7.616l1.847,1.145v-.328Z" transform="translate(-77.604 -69.054)"/><path class="m" d="M585.99,794s-1.848.385-1.472,5.427.962,5.927,1.7,5.985,4.445.962,4.253-.876-.375-5.985-.125-6.62,1.251-2.328.3-2.742l-.77.963s-2.011-1.857-3.214-.51C586.664,795.664,585.548,794.433,585.99,794Z" transform="translate(-76.914 -72.623)"/><path class="g" d="M587.26,797.24c.394.183.77.424,1.165.616a2.657,2.657,0,0,0,1.27.3.964.964,0,0,0,.52-.183" transform="translate(-77.019 -72.746)"/><path class="g" d="M599.85,802.38a8.981,8.981,0,0,0,.683.674,2.4,2.4,0,0,0,1.328.27.582.582,0,0,0,.221,0,.462.462,0,0,0,.2-.183l.25-.318" transform="translate(-77.495 -72.94)"/><path class="o" d="M567.556,714.989s-.847-8.073,2.463-6.081,1.02,5.514,1.02,5.514l-.77,2.492Z" transform="translate(-76.272 -69.399)"/><path class="o" d="M573.06,688.056l1.925-1.857s3.618-10.431,7.217-7.756-4.561,9.459-4.561,9.459l-2.156,2.521Z" transform="translate(-76.483 -68.244)"/><path class="n" d="M544.306,731.28l-.1,2.136s1.732,3.031,2.463,3.252.655-6.4.655-6.4Z" transform="translate(-75.394 -70.217)"/><path class="g" d="M544.106,731.471l-.1,2.146s1.742,3.021,2.464,3.243.664-6.39.664-6.39Z" transform="translate(-75.387 -70.225)"/><path class="o" d="M490.32,684.56l.125,7.9h8.795l-.664-4.6Z" transform="translate(-18.512 -25.845)"/><path class="m" d="M549.412,749.36l.414,2.521,5.129,11.412s2.338,3.589.443,6.611-3.849,7.755-4.157,10.585-2.8,5.677-2.8,5.677l5.417,2.3s.375-4.513,1.925-6.62,6.37-11.412,6.37-11.412,1.539-1.386,1.193-5.514-.308-7.024-.308-7.024l-.539-6.582Z" transform="translate(-75.554 -70.938)"/><path class="g" d="M549.412,749.36l.414,2.521,5.129,11.412s2.338,3.589.443,6.611-3.849,7.755-4.157,10.585-2.8,5.677-2.8,5.677l5.417,2.3s.375-4.513,1.925-6.62,6.37-11.412,6.37-11.412,1.539-1.386,1.193-5.514-.308-7.024-.308-7.024l-.539-6.582Z" transform="translate(-75.554 -70.938)"/><path class="n" d="M548.764,787.29s-5.774,1.761-3.849,4.658,8.16,8.419,10.681,8.227,1.511-2.05,1.511-2.05L555,796.046a51.768,51.768,0,0,1-.221-5.706c.154-1.29-1.8-1.925-2.05-1.136S548.764,787.29,548.764,787.29Z" transform="translate(-75.406 -72.37)"/><path class="m" d="M552.461,733.6l-4.6.5a1.655,1.655,0,0,0-1.472,1.684c.048,1.838.087,4.811-.173,5.292a9.344,9.344,0,0,0,3.5,10.229l6.832,2.175-10.96.789.347,6.082,1.693-.962,20.8.962s5.889-.6,1.924-7-12.509-12.663-12.509-12.663l-.1-4.984-.626-1.443Z" transform="translate(-75.446 -70.343)"/><path class="g" d="M558.65,754.121a5.948,5.948,0,0,1,4.734,0Z" transform="translate(-75.939 -71.099)"/><path class="n" d="M545.873,754.987s-6.736-.962-6.8.318.962,13.856,4.186,13.01,1.867-5.014,1.867-5.014l2.425-2.328s.25-1.289-1.357-1.165Z" transform="translate(-75.2 -71.137)"/><path class="n" d="M557.748,718.23l2.685,3.06s1.165,1.443,2.55-.76,3.965-6.139,3.965-6.139,2.886,2.521,3.627,2.011-6.967,10.5-6.967,10.5-2.454,3.618-6.11-.664l-1.068-.5Z" transform="translate(-75.855 -69.618)"/><path class="g" d="M557.558,718.23l2.675,3.06s1.164,1.443,2.55-.76,3.974-6.139,3.974-6.139,2.887,2.521,3.618,2.011-6.957,10.5-6.957,10.5-2.463,3.618-6.12-.664l-1.068-.5Z" transform="translate(-75.848 -69.618)"/><circle class="o" cx="5.581" cy="5.581" r="5.581" transform="translate(468.123 625.036)"/><path class="g" d="M549.082,702.224s-4.811,2.271-4.224,6.245a87.779,87.779,0,0,1,.664,8.978s2.175,3.214-.712,9.363c0,0-1.848,3.118-.616,5.389,0,0,1.366-3.6,4.888-.962s9.2,3.849,9.2,3.849-2.935-12.856-1.135-14.655c0,0,3.118-4.628.289-7.553s-1.424-5.677-1.424-5.677l9.113-4.888s1.924,0,4.5-3.993a68.087,68.087,0,0,1,5.514-7.38s-1.925-2.887-3.782-3.146a6.555,6.555,0,0,0-1.232,2.8c-.27,1.087-2.088,2.886-3.743,4.368-1.164,1.039-2.3,2.127-3.426,3.2-.837.808-2.7,1.924-6.736,2.608C549.524,701.877,549.082,702.224,549.082,702.224Z" transform="translate(-75.377 -68.614)"/><path class="n" d="M549.082,701.833s-4.811,2.271-4.224,6.235a88.1,88.1,0,0,1,.664,8.987s2.175,3.214-.712,9.353c0,0-1.848,3.127-.616,5.388,0,0,1.366-3.589,4.888-.962s9.2,3.849,9.2,3.849-2.935-12.856-1.135-14.655c0,0,3.118-4.629.289-7.563s-1.424-5.668-1.424-5.668l9.113-4.888s1.924,0,4.5-4a68.505,68.505,0,0,1,5.514-7.371s-1.925-2.935-3.782-3.156a6.646,6.646,0,0,0-1.232,2.81c-.269,1.087-2.088,2.887-3.743,4.369-1.164,1.039-2.3,2.117-3.426,3.2-.837.8-2.7,1.925-6.736,2.608C549.524,701.448,549.082,701.833,549.082,701.833Z" transform="translate(-75.377 -68.598)"/><path class="g" d="M553.58,727.09s3.714,5.485,3.849,6.428C557.391,733.518,556.871,727.629,553.58,727.09Z" transform="translate(-75.748 -70.097)"/><path class="g" d="M548.5,707.9a4.58,4.58,0,0,0,6.341.51A8.064,8.064,0,0,1,548.5,707.9Z" transform="translate(-75.556 -69.373)"/><path class="g" d="M549.815,693.463a1.72,1.72,0,0,0-.4-.76,8.085,8.085,0,0,0-3.05-2.714,4.214,4.214,0,0,0-4.811,1.367c-.452.616-.731,1.356-1.126,2.011a8.881,8.881,0,0,1-3.069,2.887c-.731.452-1.5.837-2.194,1.347a8.381,8.381,0,0,0-3.031,8.314c.269,1.338.857,2.665.7,4.022a7.189,7.189,0,0,1-1.251,2.887,9,9,0,0,0-1.405,2.887,2.829,2.829,0,0,0,.866,2.887,5.126,5.126,0,0,1,.962.654,2.843,2.843,0,0,1,.453.7,6.909,6.909,0,0,0,4.311,3.4c.818.212,1.925.135,2.2-.654a1.4,1.4,0,0,1,.154-.394c.269-.385.857-.164,1.27,0a7.783,7.783,0,0,0,3.06.875,2.465,2.465,0,0,0,1.241-.144,2.293,2.293,0,0,0,.847-.731A9,9,0,0,0,547,717.693a10.967,10.967,0,0,0,0-3.175c-.318-1.674-1.337-3.243-1.184-4.936s1.626-3.3,1.857-5.109a3.906,3.906,0,0,0-.664-2.685,4.126,4.126,0,0,1-.51-.789.79.79,0,0,1,.154-.866,1.264,1.264,0,0,1,.395-.193,3.29,3.29,0,0,0,1.924-2.886,5.932,5.932,0,0,1,.125-1.367C549.3,695,549.921,694.223,549.815,693.463Z" transform="translate(-74.86 -68.687)"/><path class="m" d="M549.425,693.463a1.735,1.735,0,0,0-.414-.76,8.056,8.056,0,0,0-3.05-2.714,4.214,4.214,0,0,0-4.811,1.367,22.749,22.749,0,0,0-1.126,2.011,8.882,8.882,0,0,1-3.069,2.887c-.731.452-1.5.837-2.194,1.347a8.41,8.41,0,0,0-3.04,8.314c.279,1.338.866,2.665.712,4.022a7.069,7.069,0,0,1-1.26,2.887,8.98,8.98,0,0,0-1.4,2.887,2.829,2.829,0,0,0,.866,2.887,5.469,5.469,0,0,1,.962.654,2.81,2.81,0,0,1,.443.7,6.957,6.957,0,0,0,4.321,3.4c.818.212,1.924.135,2.2-.654a1.394,1.394,0,0,1,.154-.394c.269-.385.856-.164,1.27,0a7.707,7.707,0,0,0,3.05.875,2.5,2.5,0,0,0,1.251-.144,2.192,2.192,0,0,0,.837-.731,8.909,8.909,0,0,0,1.453-4.609,10.641,10.641,0,0,0,0-3.175c-.317-1.674-1.337-3.243-1.193-4.936s1.636-3.3,1.857-5.109a3.849,3.849,0,0,0-.664-2.685,4.55,4.55,0,0,1-.5-.789.79.79,0,0,1,.154-.866,1.088,1.088,0,0,1,.395-.193,3.281,3.281,0,0,0,1.924-2.886,6.521,6.521,0,0,1,.135-1.367C548.905,695,549.531,694.223,549.425,693.463Z" transform="translate(-74.845 -68.687)"/><g class="a" transform="translate(462.003 621.068)"><path d="M538.439,723.591a1.4,1.4,0,0,0-.154.395,1.279,1.279,0,0,1-1.155.741c.722.068,1.482-.1,1.723-.741a1.4,1.4,0,0,1,.154-.394.454.454,0,0,1,.192-.164.645.645,0,0,0-.76.164Z" transform="translate(-537.13 -691.025)"/><path d="M549.962,693.465a1.643,1.643,0,0,0-.414-.76,7.9,7.9,0,0,0-3.051-2.675,3.847,3.847,0,0,0-1.742-.26,3.516,3.516,0,0,1,1.155.221,7.9,7.9,0,0,1,3.051,2.675,1.643,1.643,0,0,1,.414.76c.106.76-.52,1.54-.731,2.242a5.931,5.931,0,0,0-.125,1.366,3.31,3.31,0,0,1-1.924,2.886,1.077,1.077,0,0,0-.395.192.78.78,0,0,0-.154.866,4.11,4.11,0,0,0,.51.789,3.849,3.849,0,0,1,.664,2.685c-.231,1.809-1.7,3.291-1.867,5.1s.875,3.272,1.193,4.946a10.658,10.658,0,0,1,0,3.175,8.96,8.96,0,0,1-1.444,4.609,2.29,2.29,0,0,1-.846.731,1.924,1.924,0,0,1-.616.154,2.586,2.586,0,0,0,1.184-.154,2.289,2.289,0,0,0,.847-.731,8.959,8.959,0,0,0,1.443-4.609,10.641,10.641,0,0,0,0-3.175c-.318-1.674-1.338-3.243-1.193-4.946s1.636-3.291,1.867-5.1a3.851,3.851,0,0,0-.664-2.685,4.1,4.1,0,0,1-.51-.789.779.779,0,0,1,.154-.866,1.078,1.078,0,0,1,.394-.192,3.281,3.281,0,0,0,1.924-2.886,6.5,6.5,0,0,1,.135-1.366C549.442,695,550.068,694.225,549.962,693.465Z" transform="translate(-537.376 -689.756)"/></g><path class="g" d="M542.77,763a2.56,2.56,0,0,0,2.617.722" transform="translate(-75.34 -71.453)"/><path class="g" d="M555.309,796.56A1.6,1.6,0,0,1,554,796.9" transform="translate(-75.764 -72.72)"/><path class="c" d="M248.552,800.316l12.817-7.534a30.957,30.957,0,0,0-6.553-7.842l-24.172,7.525,18.937-11.143A30.792,30.792,0,0,0,204,808.332c0,17,13.789,17.6,30.792,17.6s30.792-.6,30.792-17.6a30.589,30.589,0,0,0-2.646-12.509Z" transform="translate(-62.55 -72.002)"/><path class="g" d="M251.814,817.621a24.052,24.052,0,0,0-4.542-3.57c-2.319-1.54-4.734-3.117-7.477-3.647-2.406-.462-4.888-.067-7.342-.211a17.16,17.16,0,0,1-11.249-5.158c-1.751-1.809-3.127-4.032-5.235-5.408a11.458,11.458,0,0,0-7.833-1.443,19,19,0,0,0-2.319.481A30.793,30.793,0,0,0,204,809.1c0,17,13.789,17.6,30.792,17.6,8.256,0,15.742-.144,21.275-2.232l-.962-1.722A24.178,24.178,0,0,0,251.814,817.621Z" transform="translate(-62.55 -72.775)"/><path class="c" d="M1028.552,800.316l12.817-7.534a30.969,30.969,0,0,0-6.553-7.842l-24.172,7.525,18.937-11.143A30.792,30.792,0,0,0,984,808.332c0,17,13.789,17.6,30.792,17.6s30.792-.6,30.792-17.6a30.588,30.588,0,0,0-2.646-12.509Z" transform="translate(-91.998 -72.002)"/><path class="g" d="M1031.814,817.621a24.044,24.044,0,0,0-4.542-3.57c-2.319-1.54-4.734-3.117-7.476-3.647-2.406-.462-4.888-.067-7.342-.211a17.16,17.16,0,0,1-11.249-5.158c-1.751-1.809-3.127-4.032-5.235-5.408a11.458,11.458,0,0,0-7.833-1.443,19,19,0,0,0-2.319.481A30.791,30.791,0,0,0,984,809.1c0,17,13.789,17.6,30.792,17.6,8.256,0,15.742-.144,21.275-2.232l-.962-1.722A24.157,24.157,0,0,0,1031.814,817.621Z" transform="translate(-91.998 -72.775)"/><path class="c" d="M388.308,786.833l-10.017-5.889a24.47,24.47,0,0,1,5.119-6.12l18.889,5.869-14.8-8.66a24.056,24.056,0,0,1,35.613,21.025c0,13.289-10.768,13.751-24.056,13.751S375,806.348,375,793.059a23.929,23.929,0,0,1,2.069-9.757Z" transform="translate(-69.006 -71.683)"/><path class="g" d="M386.05,800.4a18.735,18.735,0,0,1,3.541-2.781,16.428,16.428,0,0,1,5.841-2.886c1.924-.366,3.849-.058,5.773-.164a13.473,13.473,0,0,0,8.785-4.032c1.366-1.415,2.444-3.156,4.089-4.234a8.95,8.95,0,0,1,6.12-1.126,16.393,16.393,0,0,1,1.809.375,23.882,23.882,0,0,1,1.4,8.112c0,13.289-10.767,13.75-24.056,13.75-6.447,0-12.3-.115-16.618-1.742l.722-1.347A18.508,18.508,0,0,1,386.05,800.4Z" transform="translate(-69.298 -72.285)"/><path class="c" d="M468.308,786.833l-10.017-5.889a24.467,24.467,0,0,1,5.119-6.12l18.889,5.869-14.8-8.66a24.056,24.056,0,0,1,35.613,21.025c0,13.289-10.768,13.751-24.056,13.751S455,806.348,455,793.059a23.928,23.928,0,0,1,2.069-9.757Z" transform="translate(-72.026 -71.683)"/><path class="g" d="M466.05,800.4a18.731,18.731,0,0,1,3.541-2.781,16.429,16.429,0,0,1,5.841-2.886c1.924-.366,3.849-.058,5.773-.164a13.473,13.473,0,0,0,8.785-4.032c1.366-1.414,2.444-3.156,4.089-4.234a8.95,8.95,0,0,1,6.12-1.126,16.4,16.4,0,0,1,1.809.375,23.883,23.883,0,0,1,1.4,8.112c0,13.289-10.768,13.75-24.056,13.75-6.447,0-12.3-.115-16.618-1.742l.722-1.347A18.509,18.509,0,0,1,466.05,800.4Z" transform="translate(-72.318 -72.285)"/><path class="c" d="M759.308,786.833l-10.017-5.889a24.466,24.466,0,0,1,5.119-6.12l18.889,5.87-14.8-8.66a24.056,24.056,0,0,1,35.612,21.025c0,13.289-10.767,13.75-24.056,13.75S746,806.348,746,793.059a23.926,23.926,0,0,1,2.069-9.757Z" transform="translate(-83.012 -71.683)"/><path class="g" d="M757.05,800.4a18.727,18.727,0,0,1,3.541-2.781,16.431,16.431,0,0,1,5.841-2.886c1.925-.366,3.849-.058,5.774-.164a13.473,13.473,0,0,0,8.786-4.032c1.366-1.415,2.444-3.156,4.089-4.234a8.95,8.95,0,0,1,6.12-1.126,16.4,16.4,0,0,1,1.809.375,23.892,23.892,0,0,1,1.4,8.112c0,13.289-10.768,13.75-24.056,13.75-6.447,0-12.3-.115-16.618-1.742l.722-1.347A18.514,18.514,0,0,1,757.05,800.4Z" transform="translate(-83.304 -72.285)"/><path class="f" d="M501.953,722.246a19.959,19.959,0,0,0,2.636-10.094c0-9.122-5.658-16.522-12.625-16.522s-12.625,7.4-12.625,16.522a19.959,19.959,0,0,0,2.637,10.094,20.66,20.66,0,0,0,0,20.207,20.641,20.641,0,0,0,0,20.207,20.66,20.66,0,0,0,0,20.207,19.933,19.933,0,0,0-2.636,10.094c0,9.122,5.658,16.522,12.625,16.522s12.625-7.4,12.625-16.522a19.932,19.932,0,0,0-2.637-10.094,20.659,20.659,0,0,0,0-20.207,20.64,20.64,0,0,0,0-20.207,20.66,20.66,0,0,0,0-20.207Z" transform="translate(-72.945 -68.91)"/><ellipse class="f" cx="12.625" cy="16.522" rx="12.625" ry="16.522" transform="translate(406.395 606.532)"/><ellipse class="f" cx="12.625" cy="16.522" rx="12.625" ry="16.522" transform="translate(406.395 586.344)"/><path class="c" d="M537.325,523.394a60.7,60.7,0,0,0,4.7-6.919l-33.14-5.446,35.863.269a60.573,60.573,0,0,0,1.155-47.9l-48.112,24.961,44.369-32.61a60.448,60.448,0,1,0-99.843,67.646,60.562,60.562,0,0,0-6.89,11.027l43.041,22.363-45.9-15.4a60.516,60.516,0,0,0,9.748,56.772,60.448,60.448,0,1,0,95.031,0,60.467,60.467,0,0,0,0-74.747Z" transform="translate(-71.059 -58.716)"/><path class="g" d="M429.36,566.035a60.149,60.149,0,0,0,12.933,37.373,60.448,60.448,0,1,0,95.031,0C545.445,593.132,429.36,559.232,429.36,566.035Z" transform="translate(-71.058 -63.983)"/><path class="f" d="M693.237,706.479a25.233,25.233,0,0,0,3.329-12.779c0-11.547-7.15-20.91-15.973-20.91s-15.973,9.363-15.973,20.91a25.241,25.241,0,0,0,3.339,12.779,26.106,26.106,0,0,0,0,25.547,26.126,26.126,0,0,0,0,25.557,26.126,26.126,0,0,0,0,25.557,25.215,25.215,0,0,0-3.339,12.779c0,11.547,7.159,20.91,15.973,20.91s15.973-9.363,15.973-20.91a25.2,25.2,0,0,0-3.329-12.779,26.193,26.193,0,0,0,0-25.557,26.193,26.193,0,0,0,0-25.557A26.174,26.174,0,0,0,693.237,706.479Z" transform="translate(-79.94 -68.047)"/><ellipse class="f" cx="15.973" cy="20.91" rx="15.973" ry="20.91" transform="translate(584.68 579.195)"/><ellipse class="f" cx="15.973" cy="20.91" rx="15.973" ry="20.91" transform="translate(584.68 553.638)"/><path class="c" d="M618.447,454.807a74.507,74.507,0,0,1-5.947-8.756l41.964-6.89-45.389.337a76.633,76.633,0,0,1-1.463-60.622l60.9,31.591-56.166-41.28a76.508,76.508,0,1,1,126.362,85.64,76.659,76.659,0,0,1,8.727,13.953l-54.482,28.309,58.091-19.5a76.508,76.508,0,0,1-12.336,71.841,76.508,76.508,0,1,1-120.281,0,76.507,76.507,0,0,1,0-94.608Z" transform="translate(-77.578 -55.148)"/><path class="g" d="M755.087,508.776a76.165,76.165,0,0,1-16.358,47.3,76.508,76.508,0,1,1-120.281,0C608.19,543.061,755.087,500.193,755.087,508.776Z" transform="translate(-77.579 -61.813)"/></g></svg>